<svg xmlns="http://www.w3.org/2000/svg" xmlns:ev="http://www.w3.org/2001/xml-events" xmlns:xlink="http://www.w3.org/1999/xlink" width="765.466" height="167.157" class="st11" color-interpolation-filters="sRGB" viewBox="0 0 574.099 125.368" xml:space="preserve"><style type="text/css">.st1{fill:#0077c8;stroke:none;stroke-width:1}.st2{fill:#feffff;font-family:Arial;font-size:.666664em}.st3{font-size:1em}.st4{fill:#00a9ce}.st4,.st5,.st6{stroke:none;stroke-width:1}.st5{fill:#f58220}.st6{fill:none}.st7{fill:#00a9ce;font-family:Arial;font-size:.666664em}.st8{marker-end:url(#mrkr4-54);marker-start:url(#mrkr4-52);stroke-linecap:butt;stroke-width:1}.st10,.st8,.st9{stroke:#00a9ce}.st9{fill:#00a9ce;fill-opacity:1;stroke-opacity:1;stroke-width:.28409090909091}.st10{marker-end:url(#mrkr4-54);stroke-linecap:butt;stroke-width:1}.st11{fill:none;fill-rule:evenodd;font-size:12px;overflow:visible;stroke-linecap:square;stroke-miterlimit:3}</style><defs id="Markers"><g id="lend4"><path d="M 2 1 L 0 0 L 2 -1 L 2 1" style="stroke:none"/></g><marker id="mrkr4-52" class="st9" markerUnits="strokeWidth" orient="auto" overflow="visible" refX="6.68"><use transform="scale(3.52)" xlink:href="#lend4"/></marker><marker id="mrkr4-54" class="st9" markerUnits="strokeWidth" orient="auto" overflow="visible" refX="-7.04"><use transform="scale(-3.52,-3.52)" xlink:href="#lend4"/></marker></defs><g><title>Page-1</title><g id="group206-1" transform="translate(7.87096,-18.149)"><title>Sheet.206</title><g id="shape187-2"><title>Rectangle</title><desc>Platform Init Bluetooth LE Init Thread Init</desc><rect width="74.835" height="59.528" x="0" y="65.84" class="st1"/><text x="16.08" y="83.6" class="st2">Platform Init <tspan x="8.06" class="st3" dy="2.4em">Bluetooth LE Init </tspan><tspan x="18.3" class="st3" dy="1.2em">Thread Init</tspan></text></g><g id="shape188-7" transform="translate(200.202,65.84) rotate(90)"><title>Rectangle.188</title><desc>Bluetooth LE</desc><rect width="59.528" height="19.843" x="0" y="105.525" class="st4"/><text x="6.86" y="117.85" class="st2">Bluetooth LE</text></g><g id="shape189-10" transform="translate(94.6772,-1.56319E-13)"><title>Rectangle.189</title><desc>IEEE 802.15.4 e.g. Thread, Zigbee, etc.</desc><rect width="74.835" height="59.528" x="0" y="65.84" class="st5"/><text x="11.62" y="83.6" class="st2">IEEE 802.15.4 <tspan x="15.85" class="st3" dy="2.4em">e.g. Thread, </tspan><tspan x="16.52" class="st3" dy="1.2em">Zigbee, etc.</tspan></text></g><g id="shape197-15" transform="translate(294.879,65.84) rotate(90)"><title>Rectangle.197</title><desc>Bluetooth LE</desc><rect width="59.528" height="19.843" x="0" y="105.525" class="st4"/><text x="6.86" y="117.85" class="st2">Bluetooth LE</text></g><g id="shape198-18" transform="translate(189.354,-1.56319E-13)"><title>Rectangle.198</title><desc>IEEE 802.15.4 e.g. Thread, Zigbee, etc.</desc><rect width="74.835" height="59.528" x="0" y="65.84" class="st5"/><text x="11.62" y="83.6" class="st2">IEEE 802.15.4 <tspan x="15.85" class="st3" dy="2.4em">e.g. Thread, </tspan><tspan x="16.52" class="st3" dy="1.2em">Zigbee, etc.</tspan></text></g><g id="shape199-23" transform="translate(389.556,65.84) rotate(90)"><title>Rectangle.199</title><desc>Bluetooth LE</desc><rect width="59.528" height="19.843" x="0" y="105.525" class="st4"/><text x="6.86" y="117.85" class="st2">Bluetooth LE</text></g><g id="shape200-26" transform="translate(284.031,-1.56319E-13)"><title>Rectangle.200</title><desc>IEEE 802.15.4 e.g. Thread, Zigbee, etc.</desc><rect width="65.764" height="59.528" x="0" y="65.84" class="st5"/><text x="7.09" y="83.6" class="st2">IEEE 802.15.4 <tspan x="11.31" class="st3" dy="2.4em">e.g. Thread, </tspan><tspan x="11.98" class="st3" dy="1.2em">Zigbee, etc.</tspan></text></g><g id="shape201-31" transform="translate(486.501,65.84) rotate(90)"><title>Rectangle.201</title><desc>Bluetooth LE</desc><rect width="59.528" height="19.843" x="0" y="105.525" class="st4"/><text x="6.86" y="117.85" class="st2">Bluetooth LE</text></g><g id="shape202-34" transform="translate(578.627,65.84) rotate(90)"><title>Rectangle.202</title><desc>Bluetooth LE</desc><rect width="59.528" height="19.843" x="0" y="105.525" class="st4"/><text x="6.86" y="117.85" class="st2">Bluetooth LE</text></g><g id="shape205-37" transform="translate(486.992,-1.56319E-13)"><title>Rectangle.205</title><desc>IEEE 802.15.4 e.g. Thread, Zigbee, etc.</desc><rect width="61.228" height="59.528" x="0" y="65.84" class="st5"/><text x="4.82" y="83.6" class="st2">IEEE 802.15.4 <tspan x="9.05" class="st3" dy="2.4em">e.g. Thread, </tspan><tspan x="9.71" class="st3" dy="1.2em">Zigbee, etc.</tspan></text></g></g><g id="shape207-42" transform="translate(52.9418,-86.1805)"><title>Sheet.207</title><desc>Bluetooth low energy connection/ advertising interval</desc><rect width="128.126" height="28.346" x="0" y="97.021" class="st6"/><text x="5.14" y="108.79" class="st7">Bluetooth low energy connection/ <tspan x="30.71" class="st3" dy="1.2em">advertising interval</tspan></text></g><g id="shape209-46" transform="translate(82.7056,-79.0939)"><title>Dynamic connector</title><path d="M6.68 118.28 L7.04 118.28 L88.49 118.28" class="st8"/></g><g id="shape210-55" transform="translate(181.068,-86.1805)"><title>Sheet.210</title><desc>Bluetooth low energy connection/ advertising interval</desc><rect width="128.126" height="28.346" x="0" y="97.021" class="st6"/><text x="5.14" y="108.79" class="st7">Bluetooth low energy connection/ <tspan x="30.71" class="st3" dy="1.2em">advertising interval</tspan></text></g><g id="shape211-59" transform="translate(178.233,-79.0939)"><title>Dynamic connector.211</title><path d="M6.68 118.28 L7.04 118.28 L86.59 118.28" class="st8"/></g><g id="shape212-66" transform="translate(350.58,-111.338)"><title>Dynamic connector.212</title><path d="M7.09 125.37 L7.09 151.99" class="st10"/></g><g id="shape213-71" transform="translate(342.745,-111.692)"><title>Sheet.213</title><desc>Sleep</desc><rect width="29.843" height="12.675" x="0" y="112.692" class="st6"/><text x="4.69" y="121.43" class="st7">Sleep</text></g><g id="shape214-74" transform="translate(488.808,-111.338)"><title>Dynamic connector.214</title><path d="M7.09 125.37 L7.09 151.99" class="st10"/></g><g id="shape215-79" transform="translate(475.343,-111.338)"><title>Sheet.215</title><desc>Wake up</desc><rect width="41.102" height="12.675" x="0" y="112.692" class="st6"/><text x="4.77" y="121.43" class="st7">Wake up</text></g><g id="shape216-82" transform="translate(7.87096,-15.8866)"><title>Dynamic connector.216</title><path d="M0 132.36 L534.66 132.55" class="st10"/></g><g id="shape217-87" transform="translate(546.737,-2.55849)"><title>Sheet.217</title><desc>Time</desc><rect width="26.362" height="12.675" x="0" y="112.692" class="st6"/><text x="4.29" y="121.43" class="st7">Time</text></g></g></svg>