<svg xmlns="http://www.w3.org/2000/svg" xmlns:ev="http://www.w3.org/2001/xml-events" xmlns:xlink="http://www.w3.org/1999/xlink" width="8.286in" height="184.805" class="st10" color-interpolation-filters="sRGB" viewBox="0 0 596.592 138.603" xml:space="preserve"><style type="text/css">.st1,.st2{fill:#fff;stroke:none;stroke-linecap:round;stroke-linejoin:round;stroke-width:.72}.st2{fill:none;stroke:#000}.st3{fill:#000;font-family:Arial;font-size:.833336em}.st4{font-size:1em}.st5,.st6{stroke:#000}.st5{marker-end:url(#mrkr13-19);stroke-linecap:round;stroke-linejoin:round;stroke-width:.72}.st6{fill:#000;fill-opacity:1;stroke-opacity:1;stroke-width:.22222222222222}.st7,.st8{fill:none;stroke-linecap:round;stroke-linejoin:round;stroke-width:.72}.st7{stroke:#000;stroke-dasharray:5.04,3.6}.st8{stroke:none}.st9{fill:#000;font-family:Arial;font-size:1.99999em}.st10{fill:none;fill-rule:evenodd;font-size:12px;overflow:visible;stroke-linecap:square;stroke-miterlimit:3}</style><defs id="Markers"><g id="lend13"><path d="M 3 1 L 0 0 L 3 -1 L 3 1" style="stroke:none"/></g><marker id="mrkr13-19" class="st6" markerUnits="strokeWidth" orient="auto" overflow="visible" refX="-13.5"><use transform="scale(-4.5,-4.5)" xlink:href="#lend13"/></marker></defs><g><title>VBackground-1</title><g id="shape1000-1"><title>Solid.1000</title><rect width="596.592" height="138.603" x="0" y="0" class="st1"/></g></g><g><title>Page-1</title><g id="shape29-3" transform="translate(70.8172,-76.9245)"><title>Sheet.29</title><desc>P</desc><rect width="18.815" height="36.028" x="0" y="102.576" class="st2"/><text x="6.07" y="123.59" class="st3">P</text></g><g id="shape38-6" transform="translate(174.827,-76.9245)"><title>Sheet.38</title><desc>P</desc><rect width="18.815" height="36.028" x="0" y="102.576" class="st2"/><text x="6.07" y="123.59" class="st3">P</text></g><g id="shape44-9" transform="translate(277.057,-76.9245)"><title>Sheet.44</title><desc>Adv</desc><rect width="18.815" height="36.028" x="0" y="102.576" class="st2"/><text x="6.07" y="111.59" class="st3">A<tspan x="6.63" class="st4" dy="1.2em">d</tspan><tspan x="6.91" class="st4" dy="1.2em">v</tspan></text></g><g id="shape47-14" transform="translate(45.3543,-76.8146)"><title>Sheet.47</title><path d="M0 138.6 L489.28 138.6" class="st5"/></g><g id="shape49-20" transform="translate(277.175,-12.6907)"><title>Sheet.49</title><desc>P</desc><path d="M0 138.6 L18.82 138.6 L18.82 102.58 L0 102.58 L0 138.6 Z" class="st7"/><text x="6.07" y="123.59" class="st3">P</text></g><g id="shape51-23" transform="translate(375.738,-12.7457)"><title>Sheet.51</title><desc>Adv</desc><path d="M0 138.6 L18.82 138.6 L18.82 102.58 L0 102.58 L0 138.6 Z" class="st7"/><text x="6.07" y="111.59" class="st3">A<tspan x="6.63" class="st4" dy="1.2em">d</tspan><tspan x="6.91" class="st4" dy="1.2em">v</tspan></text></g><g id="shape70-28" transform="translate(375.738,-77.0185)"><title>Sheet.70</title><desc>P</desc><rect width="18.815" height="36.028" x="0" y="102.576" class="st2"/><text x="6.07" y="123.59" class="st3">P</text></g><g id="shape72-31" transform="translate(466.484,-90.7087)"><title>Sheet.72</title><desc>…</desc><rect width="55.192" height="10.736" x="0" y="127.868" class="st8"/><text x="15.6" y="140.44" class="st9">…</text></g><g id="shape67-34" transform="translate(130.415,-77.3581)"><title>Sheet.67</title><desc>Adv</desc><rect width="18.815" height="36.028" x="0" y="102.576" class="st2"/><text x="6.07" y="111.59" class="st3">A<tspan x="6.63" class="st4" dy="1.2em">d</tspan><tspan x="6.91" class="st4" dy="1.2em">v</tspan></text></g></g></svg>