<svg xmlns="http://www.w3.org/2000/svg" xmlns:ev="http://www.w3.org/2001/xml-events" xmlns:xlink="http://www.w3.org/1999/xlink" width="792.38" height="166.976" class="st14" color-interpolation-filters="sRGB" viewBox="0 0 594.285 125.232" xml:space="preserve"><style type="text/css">.st1{fill:#fff;stroke:none;stroke-linecap:round;stroke-linejoin:round;stroke-width:.72}.st2,.st3{stroke:#000}.st2{marker-end:url(#mrkr13-8);stroke-linecap:round;stroke-linejoin:round;stroke-width:.72}.st3{fill:#000;fill-opacity:1;stroke-opacity:1;stroke-width:.22222222222222}.st4{fill:none}.st5{marker-end:url(#mrkr12-17);marker-start:url(#mrkr12-15);stroke-linecap:round;stroke-linejoin:round;stroke-width:.24}.st5,.st6,.st7{stroke:#000}.st6{stroke-linecap:round;stroke-linejoin:round;stroke-width:.24}.st7{fill:#000;fill-opacity:1;stroke-opacity:1;stroke-width:.08695652173913}.st8{fill:#000;font-family:Arial;font-size:.833336em}.st9{fill:none;stroke:#000;stroke-linecap:round;stroke-linejoin:round;stroke-width:.72}.st10{fill:#000;font-family:Arial;font-size:.666664em}.st11{font-size:1em}.st12{stroke-dasharray:2.16,2.16}.st12,.st13{stroke:#000;stroke-linecap:round;stroke-linejoin:round;stroke-width:.72}.st14{fill:none;fill-rule:evenodd;font-size:12px;overflow:visible;stroke-linecap:square;stroke-miterlimit:3}</style><defs id="Markers"><g id="lend13"><path d="M 3 1 L 0 0 L 3 -1 L 3 1" style="stroke:none"/></g><marker id="mrkr13-8" class="st3" markerUnits="strokeWidth" orient="auto" overflow="visible" refX="-13.5"><use transform="scale(-4.5,-4.5)" xlink:href="#lend13"/></marker><g id="lend12"><path d="M 3 1 L 0 0 L 3 -1" style="stroke-linecap:round;stroke-linejoin:round;fill:none"/></g><marker id="mrkr12-15" class="st7" markerUnits="strokeWidth" orient="auto" overflow="visible"><use transform="scale(11.5)" xlink:href="#lend12"/></marker><marker id="mrkr12-17" class="st7" markerUnits="strokeWidth" orient="auto" overflow="visible"><use transform="scale(-11.5,-11.5)" xlink:href="#lend12"/></marker></defs><g><title>VBackground-1</title><g id="shape1000-1"><title>Solid.1000</title><rect width="594.285" height="125.232" x="0" y="0" class="st1"/></g></g><g><title>Page-1</title><g id="shape5-3" transform="translate(28.2458,-52.6672)"><title>Sheet.5</title><path d="M0 125.23 L528.07 125.23" class="st2"/></g><g id="shape8-9" transform="translate(199.742,-39.9415)"><title>Duration (horizontal) .8</title><desc>transmitWindowDelay</desc><path d="M0 130.29 L0 121.29 L0 130.29 ZM70.16 130.29 L70.16 121.29 L70.16 130.29 Z" class="st4"/><path d="M0 125.79 L70.16 125.79" class="st5"/><path d="M0 130.29 L0 121.29" class="st6"/><path class="st6"/><path d="M70.16 130.29 L70.16 121.29" class="st6"/><path class="st6"/><text x="-12.81" y="140.17" class="st8">transmitWindowDelay</text></g><g id="shape9-23" transform="translate(270.025,-52.684)"><title>Sheet.9</title><desc>C</desc><rect width="17.607" height="53.694" x="0" y="71.537" class="st9"/><text x="5.19" y="101.38" class="st8">C</text></g><g id="shape10-26" transform="translate(288.112,-39.9846)"><title>Duration (horizontal) .10</title><desc>connectionInterval</desc><path d="M0 130.29 L0 121.29 L0 130.29 ZM212.81 130.29 L212.81 121.29 L212.81 130.29 Z" class="st4"/><path d="M0 125.79 L212.81 125.79" class="st5"/><path d="M0 130.29 L0 121.29" class="st6"/><path class="st6"/><path d="M212.81 130.29 L212.81 121.29" class="st6"/><path class="st6"/><text x="66.61" y="139.85" class="st8">connectionInterval</text></g><g id="shape11-38" transform="translate(502.45,-52.6241)"><title>Sheet.11</title><desc>C</desc><rect width="17.607" height="53.694" x="0" y="71.537" class="st9"/><text x="5.19" y="101.38" class="st8">C</text></g><g id="shape50-41" transform="translate(184.151,-53.1774)"><title>Sheet.50</title><desc>CREQ</desc><rect width="14.173" height="53.694" x="0" y="71.537" class="st9"/><text x="4.2" y="86.38" class="st10">C<tspan x="4.2" class="st11" dy="1.2em">R</tspan><tspan x="4.42" class="st11" dy="1.2em">E</tspan><tspan x="4" class="st11" dy="1.2em">Q</tspan></text></g><g id="shape1000-47" transform="translate(167.143,-53.1774)"><title>Sheet.1000</title><desc>ADV</desc><path d="M1.23 125.23 L14.17 125.23 L14.17 72.11 L0 72.11 L0 72.62" class="st12"/><text x="4" y="89.67" class="st8">A<tspan x="4" class="st11" dy="1.2em">D</tspan><tspan x="4" class="st11" dy="1.2em">V</tspan></text></g><g id="shape1001-53" transform="translate(292.375,18.8702) rotate(90)"><title>Sheet.1001</title><path d="M0 125.23 L53.18 125.23" class="st12"/></g><g id="shape1002-56" transform="translate(167.143,-53.1774)"><title>Sheet.1002</title><path d="M0 125.23 L1.23 125.23" class="st13"/></g><g id="shape1004-59" transform="translate(36.7497,-52.6672)"><title>Sheet.1004</title><desc>Initiator</desc><path d="M130.39 71.54 L0 71.54 L0 125.23" class="st13"/><text x="48.8" y="101.38" class="st8">Initiator</text></g><g id="shape1005-63" transform="translate(36.7497,-52.6672)"><title>Sheet.1005</title><path d="M0 125.23 L131.63 125.23 L131.63 124.72" class="st13"/></g></g></svg>