<svg xmlns="http://www.w3.org/2000/svg" xmlns:ev="http://www.w3.org/2001/xml-events" xmlns:xlink="http://www.w3.org/1999/xlink" width="792.38" height="183.787" class="st15" color-interpolation-filters="sRGB" viewBox="0 0 594.285 137.84" xml:space="preserve"><style type="text/css">.st1{fill:#fff;stroke:none;stroke-linecap:round;stroke-linejoin:round;stroke-width:.72}.st2,.st3{stroke:#000}.st2{marker-end:url(#mrkr13-8);stroke-linecap:round;stroke-linejoin:round;stroke-width:.72}.st3{fill:#000;fill-opacity:1;stroke-opacity:1;stroke-width:.22222222222222}.st4{fill:none}.st5{marker-end:url(#mrkr12-17);marker-start:url(#mrkr12-15);stroke-linecap:round;stroke-linejoin:round;stroke-width:.24}.st5,.st6,.st7{stroke:#000}.st6{stroke-linecap:round;stroke-linejoin:round;stroke-width:.24}.st7{fill:#000;fill-opacity:1;stroke-opacity:1;stroke-width:.08695652173913}.st8{fill:#000;font-family:Arial;font-size:.833336em}.st9{fill:none;stroke:#000;stroke-linecap:round;stroke-linejoin:round;stroke-width:.72}.st10{fill:#000;font-family:Arial;font-size:.666664em}.st11{font-size:1em}.st12{stroke-dasharray:5.04,3.6}.st12,.st13,.st14{stroke:#000;stroke-linecap:round;stroke-linejoin:round;stroke-width:.72}.st14{fill:none;stroke:none}.st15{fill:none;fill-rule:evenodd;font-size:12px;overflow:visible;stroke-linecap:square;stroke-miterlimit:3}</style><defs id="Markers"><g id="lend13"><path d="M 3 1 L 0 0 L 3 -1 L 3 1" style="stroke:none"/></g><marker id="mrkr13-8" class="st3" markerUnits="strokeWidth" orient="auto" overflow="visible" refX="-13.5"><use transform="scale(-4.5,-4.5)" xlink:href="#lend13"/></marker><g id="lend12"><path d="M 3 1 L 0 0 L 3 -1" style="stroke-linecap:round;stroke-linejoin:round;fill:none"/></g><marker id="mrkr12-15" class="st7" markerUnits="strokeWidth" orient="auto" overflow="visible"><use transform="scale(11.5)" xlink:href="#lend12"/></marker><marker id="mrkr12-17" class="st7" markerUnits="strokeWidth" orient="auto" overflow="visible"><use transform="scale(-11.5,-11.5)" xlink:href="#lend12"/></marker></defs><g><title>VBackground-1</title><g id="shape1000-1"><title>Solid.1000</title><rect width="594.285" height="137.84" x="0" y="0" class="st1"/></g></g><g><title>Page-1</title><g id="shape5-3" transform="translate(10.0584,-42.8771)"><title>Sheet.5</title><path d="M0 137.84 L556.88 137.84" class="st2"/></g><g id="shape8-9" transform="translate(238.931,-25.2722)"><title>Duration (horizontal) .8</title><desc>transmitWindowDelay</desc><path d="M0 142.9 L0 133.9 L0 142.9 ZM73.92 142.9 L73.92 133.9 L73.92 142.9 Z" class="st4"/><path d="M0 138.4 L73.92 138.4" class="st5"/><path d="M0 142.9 L0 133.9" class="st6"/><path class="st6"/><path d="M73.92 142.9 L73.92 133.9" class="st6"/><path class="st6"/><text x="-11.76" y="153.21" class="st8">transmitWindowDelay</text></g><g id="shape9-23" transform="translate(312.847,-42.902)"><title>Sheet.9</title><desc>C</desc><rect width="18.55" height="73.838" x="0" y="64.002" class="st9"/><text x="5.66" y="103.92" class="st8">C</text></g><g id="shape10-26" transform="translate(312.847,-25.3314)"><title>Duration (horizontal) .10</title><desc>connectionInterval</desc><path d="M0 142.9 L0 133.9 L0 142.9 ZM195.21 142.9 L195.21 133.9 L195.21 142.9 Z" class="st4"/><path d="M0 138.4 L195.21 138.4" class="st5"/><path d="M0 142.9 L0 133.9" class="st6"/><path class="st6"/><path d="M195.21 142.9 L195.21 133.9" class="st6"/><path class="st6"/><text x="57.74" y="152.46" class="st8">connectionInterval</text></g><g id="shape11-38" transform="translate(509.667,-42.8179)"><title>Sheet.11</title><desc>C</desc><rect width="18.55" height="73.838" x="0" y="64.002" class="st9"/><text x="5.66" y="103.92" class="st8">C</text></g><g id="shape50-41" transform="translate(223.252,-42.902)"><title>Sheet.50</title><desc>CREQ</desc><rect width="14.932" height="73.838" x="0" y="64.002" class="st9"/><text x="4.58" y="88.92" class="st10">C<tspan x="4.58" class="st11" dy="1.2em">R</tspan><tspan x="4.8" class="st11" dy="1.2em">E</tspan><tspan x="4.35" class="st11" dy="1.2em">Q</tspan></text></g><g id="shape51-47" transform="translate(14.1963,-42.902)"><title>Sheet.51</title><desc>Initiator_1M</desc><rect width="97.061" height="73.838" x="0" y="64.002" class="st9"/><text x="22.41" y="103.92" class="st8">Initiator_1M</text></g><g id="shape1012-50" transform="translate(204.757,-42.902)"><title>Sheet.1012</title><path d="M0 137.84 L12.52 137.84 L12.52 64 L0 64" class="st12"/></g><g id="shape1013-53" transform="translate(204.757,158.94) rotate(180)"><title>Sheet.1013</title><path d="M0 137.84 L2.41 137.84" class="st13"/></g><g id="shape1014-56" transform="translate(340.186,21.1001) rotate(90)"><title>Sheet.1014</title><path d="M0 137.84 L73.84 137.84" class="st12"/></g><g id="shape1015-59" transform="translate(202.346,-42.902)"><title>Sheet.1015</title><path d="M0 137.84 L2.41 137.84" class="st13"/></g><g id="shape1016-62" transform="translate(202.346,-42.902)"><title>Sheet.1016</title><path d="M0 137.84 L2.41 137.84" class="st13"/></g><g id="shape1018-65" transform="translate(204.757,158.94) rotate(180)"><title>Sheet.1018</title><path d="M0 137.84 L2.41 137.84" class="st13"/></g><g id="shape1019-68" transform="translate(115.737,-42.902)"><title>Sheet.1019</title><path d="M86.61 64 L0 64 L0 137.84" class="st13"/></g><g id="shape1020-71" transform="translate(115.737,-42.902)"><title>Sheet.1020</title><path d="M0 137.84 L86.61 137.84" class="st13"/></g><g id="shape1021-74" transform="translate(124.191,-68.3938)"><title>Sheet.1021</title><desc>Initiator_coded</desc><rect width="74.047" height="20" x="0" y="117.84" class="st14"/><text x="4.22" y="130.84" class="st8">Initiator_coded</text></g><g id="shape1022-77" transform="translate(202.353,-62.1913)"><title>Sheet.1022</title><desc>ADV</desc><rect width="13.821" height="33.289" x="0" y="104.551" class="st14"/><text x="4.24" y="114" class="st10">A<tspan x="4.02" class="st11" dy="1.2em">D</tspan><tspan x="4.24" class="st11" dy="1.2em">V</tspan></text></g></g></svg>