<svg xmlns="http://www.w3.org/2000/svg" xmlns:ev="http://www.w3.org/2001/xml-events" xmlns:xlink="http://www.w3.org/1999/xlink" width="793.701" height="181.417" class="st17" color-interpolation-filters="sRGB" viewBox="0 0 595.276 136.063" xml:space="preserve"><style type="text/css">.st1,.st2{stroke-linecap:round;stroke-linejoin:round;stroke-width:.72}.st1{fill:#fff;stroke:none}.st2{marker-end:url(#mrkr13-8)}.st2,.st3,.st4{stroke:#000}.st3{fill:#000;fill-opacity:1;stroke-opacity:1;stroke-width:.22222222222222}.st4{fill:none;stroke-linecap:round;stroke-linejoin:round;stroke-width:.72}.st5{fill:#000;font-family:Arial;font-size:.833336em}.st6{font-size:1em}.st7{fill:none;stroke:none;stroke-linecap:round;stroke-linejoin:round;stroke-width:.72}.st8{fill:#000;font-family:Arial;font-size:1.99999em}.st9{fill:none}.st10{marker-end:url(#mrkr12-31);marker-start:url(#mrkr12-29)}.st10,.st11{stroke:#000;stroke-linecap:round;stroke-linejoin:round;stroke-width:.24}.st12{fill:#000;fill-opacity:1;stroke:#000;stroke-opacity:1;stroke-width:.08695652173913}.st13{font-size:.799995em}.st14{baseline-shift:-25.9949%;font-size:.519899em}.st15{fill:#000;font-family:Arial;font-size:.666664em}.st16{baseline-shift:-32.4939%;font-size:.649878em}.st17{fill:none;fill-rule:evenodd;font-size:12px;overflow:visible;stroke-linecap:square;stroke-miterlimit:3}</style><defs id="Markers"><g id="lend13"><path d="M 3 1 L 0 0 L 3 -1 L 3 1" style="stroke:none"/></g><marker id="mrkr13-8" class="st3" markerUnits="strokeWidth" orient="auto" overflow="visible" refX="-13.5"><use transform="scale(-4.5,-4.5)" xlink:href="#lend13"/></marker><g id="lend12"><path d="M 3 1 L 0 0 L 3 -1" style="stroke-linecap:round;stroke-linejoin:round;fill:none"/></g><marker id="mrkr12-29" class="st12" markerUnits="strokeWidth" orient="auto" overflow="visible"><use transform="scale(11.5)" xlink:href="#lend12"/></marker><marker id="mrkr12-31" class="st12" markerUnits="strokeWidth" orient="auto" overflow="visible"><use transform="scale(-11.5,-11.5)" xlink:href="#lend12"/></marker></defs><g><title>VBackground-1</title><g id="shape1000-1"><title>Solid.1000</title><rect width="595.276" height="136.063" x="0" y="0" class="st1"/></g></g><g><title>Page-1</title><g id="shape4-3" transform="translate(56.5922,-44.0968)"><title>Sheet.4</title><path d="M0 136.06 L419.3 136.06" class="st2"/></g><g id="shape7-9" transform="translate(83.0208,-44.1398)"><title>Sheet.7</title><desc>C0</desc><rect width="17.325" height="53.694" x="0" y="82.368" class="st4"/><text x="5.05" y="106.22" class="st5">C<tspan x="5.88" class="st6" dy="1.2em">0</tspan></text></g><g id="shape10-13" transform="translate(438.271,-32.6505)"><title>Sheet.10</title><desc>time</desc><rect width="142.832" height="16" x="0" y="120.063" class="st7"/><text x="61.97" y="131.06" class="st5">time</text></g><g id="shape12-16" transform="translate(344.232,-62.9398)"><title>Sheet.12</title><desc>…</desc><rect width="50.61" height="16" x="0" y="120.063" class="st7"/><text x="13.3" y="135.26" class="st8">…</text></g><g id="shape16-19" transform="translate(319.178,-44.1303)"><title>Sheet.16</title><desc>C0</desc><rect width="17.325" height="53.694" x="0" y="82.368" class="st4"/><text x="5.05" y="106.22" class="st5">C<tspan x="5.88" class="st6" dy="1.2em">0</tspan></text></g><g id="shape19-23" transform="translate(83.065,-104.132)"><title>Duration (horizontal) .19</title><desc>connectionInterval (= 8*tevent)</desc><path d="M0 141.12 L0 132.12 L0 141.12 ZM236.07 141.12 L236.07 132.12 L236.07 141.12 Z" class="st9"/><path d="M0 136.62 L236.07 136.62" class="st10"/><path d="M0 141.12 L0 132.12" class="st11"/><path class="st11"/><path d="M236.07 141.12 L236.07 132.12" class="st11"/><path class="st11"/><text x="56.67" y="130.84" class="st5">connectionInterval (= 8*<tspan class="st13">t</tspan><tspan class="st14" dy=".287em">event</tspan><tspan class="st6" dy=".149em">)</tspan></text></g><g id="shape8-40" transform="translate(83.0513,-40.0374)"><title>Duration (horizontal) .8</title><desc>tevent</desc><path d="M0 132.12 L0 141.12 L0 132.12 ZM30.16 141.12 L30.16 132.12 L30.16 141.12 Z" class="st9"/><path d="M0 136.62 L30.16 136.62" class="st10"/><path d="M0 132.12 L0 141.12" class="st11"/><path class="st11"/><path d="M30.16 141.12 L30.16 132.12" class="st11"/><path class="st11"/><text x="7.27" y="150.08" class="st15">t<tspan class="st16" dy=".287em">event</tspan></text></g><g id="shape20-53" transform="translate(113.21,-44.2913)"><title>Sheet.20</title><desc>C1</desc><rect width="17.325" height="53.694" x="0" y="82.368" class="st4"/><text x="5.05" y="106.22" class="st5">C<tspan x="5.88" class="st6" dy="1.2em">1</tspan></text></g><g id="shape21-57" transform="translate(143.478,-43.9183)"><title>Sheet.21</title><desc>C2</desc><rect width="17.325" height="53.694" x="0" y="82.368" class="st4"/><text x="5.05" y="106.22" class="st5">C<tspan x="5.88" class="st6" dy="1.2em">2</tspan></text></g><g id="shape22-61" transform="translate(172.118,-43.9183)"><title>Sheet.22</title><desc>C3</desc><rect width="17.325" height="53.694" x="0" y="82.368" class="st4"/><text x="5.05" y="106.22" class="st5">C<tspan x="5.88" class="st6" dy="1.2em">3</tspan></text></g><g id="shape23-65" transform="translate(202.853,-43.9183)"><title>Sheet.23</title><desc>C4</desc><rect width="17.325" height="53.694" x="0" y="82.368" class="st4"/><text x="5.05" y="106.22" class="st5">C<tspan x="5.88" class="st6" dy="1.2em">4</tspan></text></g><g id="shape24-69" transform="translate(231.539,-43.9183)"><title>Sheet.24</title><desc>C5</desc><rect width="17.325" height="53.694" x="0" y="82.368" class="st4"/><text x="5.05" y="106.22" class="st5">C<tspan x="5.88" class="st6" dy="1.2em">5</tspan></text></g><g id="shape25-73" transform="translate(260.827,-43.933)"><title>Sheet.25</title><desc>C6</desc><rect width="17.325" height="53.694" x="0" y="82.368" class="st4"/><text x="5.05" y="106.22" class="st5">C<tspan x="5.88" class="st6" dy="1.2em">6</tspan></text></g><g id="shape26-77" transform="translate(289.98,-43.9256)"><title>Sheet.26</title><desc>C7</desc><rect width="17.325" height="53.694" x="0" y="82.368" class="st4"/><text x="5.05" y="106.22" class="st5">C<tspan x="5.88" class="st6" dy="1.2em">7</tspan></text></g><g id="shape31-81" transform="translate(136.56,-14.1732)"><title>Sheet.31</title><desc>Note: All connections have same (minimum) tevent</desc><rect width="310.06" height="16" x="0" y="120.063" class="st7"/><text x="48.35" y="131.06" class="st5">Note: All connections have same (minimum) <tspan class="st13">t</tspan><tspan class="st14" dy=".287em">event</tspan></text></g></g></svg>