<svg xmlns="http://www.w3.org/2000/svg" xmlns:ev="http://www.w3.org/2001/xml-events" xmlns:xlink="http://www.w3.org/1999/xlink" width="793.701" height="181.417" class="st18" color-interpolation-filters="sRGB" viewBox="0 0 595.276 136.063" xml:space="preserve"><style type="text/css">.st1{fill:#fff;stroke:none;stroke-linecap:round;stroke-linejoin:round;stroke-width:.72}.st2{fill:none;stroke:#000;stroke-width:1}.st3{fill:#000;font-family:Arial;font-size:.833336em;font-weight:700;letter-spacing:-.0999997em}.st4{font-size:1em}.st5,.st6{stroke:#000}.st5{marker-end:url(#mrkr1-19);marker-start:url(#mrkr1-17);stroke-width:.5}.st6{fill:#000;fill-opacity:1;stroke-opacity:1;stroke-width:.16556291390728}.st7{fill:#000;font-family:Arial;font-size:.916672em;font-style:italic}.st8{baseline-shift:-32.4944%;font-size:.649888em}.st9{marker-end:url(#mrkr13-88);stroke:#000;stroke-width:1}.st10{fill:#000;fill-opacity:1;stroke:#000;stroke-opacity:1;stroke-width:.28409090909091}.st11{fill:#fff}.st12{marker-end:url(#mrkr1-97);marker-start:url(#mrkr1-95)}.st12,.st13,.st14{stroke:#000;stroke-width:.75}.st14{fill:#000;fill-opacity:1;stroke-opacity:1;stroke-width:.22935779816514}.st15{fill:#000;font-family:Arial;font-size:.833336em}.st16,.st17{stroke:#000;stroke-linecap:round;stroke-linejoin:round;stroke-width:.5}.st17{stroke-dasharray:0,6.25;stroke-width:1.25}.st18{fill:none;fill-rule:evenodd;font-size:12px;overflow:visible;stroke-linecap:square;stroke-miterlimit:3}</style><defs id="Markers"><g id="lend1"><path d="M 1 -1 L 0 0 L 1 1" style="stroke-linecap:round;stroke-linejoin:round;fill:none"/></g><marker id="mrkr1-17" class="st6" markerUnits="strokeWidth" orient="auto" overflow="visible"><use transform="scale(6.04)" xlink:href="#lend1"/></marker><marker id="mrkr1-19" class="st6" markerUnits="strokeWidth" orient="auto" overflow="visible"><use transform="scale(-6.04,-6.04)" xlink:href="#lend1"/></marker><g id="lend13"><path d="M 3 1 L 0 0 L 3 -1 L 3 1" style="stroke:none"/></g><marker id="mrkr13-88" class="st10" markerUnits="strokeWidth" orient="auto" overflow="visible" refX="-10.56"><use transform="scale(-3.52,-3.52)" xlink:href="#lend13"/></marker><marker id="mrkr1-95" class="st14" markerUnits="strokeWidth" orient="auto" overflow="visible"><use transform="scale(4.36)" xlink:href="#lend1"/></marker><marker id="mrkr1-97" class="st14" markerUnits="strokeWidth" orient="auto" overflow="visible"><use transform="scale(-4.36,-4.36)" xlink:href="#lend1"/></marker></defs><g><title>VBackground-1</title><g id="shape1000-1"><title>Solid.1000</title><rect width="595.276" height="136.063" x="0" y="0" class="st1"/></g></g><g><title>Too short CE for PHY</title><g id="shape240-3" transform="translate(109.984,-41.9778)"><title>Sheet.240</title><desc>C 1</desc><rect width="39.685" height="55.913" x="0" y="80.15" class="st2"/><text x="16.73" y="105.11" class="st3">C <tspan x="17.56" class="st4" dy="1.2em">1</tspan></text></g><g id="shape220-7" transform="translate(58.9606,-41.9777)"><title>Sheet.220</title><desc>C 0</desc><rect width="39.685" height="55.913" x="0" y="80.15" class="st2"/><text x="16.73" y="105.11" class="st3">C <tspan x="17.56" class="st4" dy="1.2em">0</tspan></text></g><g id="shape288-11" transform="translate(58.9606,-34.8028)"><title>Duration (horizontal) .288</title><desc>tevent-C0</desc><path d="M0 136.34 L51.02 136.34" class="st5"/><text x="9.71" y="151.01" class="st7">t<tspan class="st8" dy=".287em">event</tspan><tspan class="st8">-</tspan><tspan class="st8">C0</tspan></text></g><g id="shape289-24" transform="translate(161.008,-34.8028)"><title>Duration (horizontal) .289</title><desc>tevent-C2</desc><path d="M0 136.34 L51.02 136.34" class="st5"/><text x="9.71" y="151.01" class="st7">t<tspan class="st8" dy=".287em">event</tspan><tspan class="st8">-</tspan><tspan class="st8">C</tspan><tspan class="st8">2</tspan></text></g><g id="shape290-36" transform="translate(109.984,-34.8028)"><title>Duration (horizontal) .290</title><desc>tevent-C1</desc><path d="M0 136.34 L51.02 136.34" class="st5"/><text x="12.55" y="160.88" class="st7">t<tspan class="st8" dy=".287em">event</tspan><tspan class="st8">-</tspan><tspan class="st8">C</tspan><tspan class="st8">1</tspan></text></g><g id="shape322-48" transform="translate(331.321,-34.8028)"><title>Duration (horizontal) .322</title><desc>tevent-C0</desc><path d="M0 136.34 L51.02 136.34" class="st5"/><text x="9.71" y="151.01" class="st7">t<tspan class="st8" dy=".287em">event</tspan><tspan class="st8">-</tspan><tspan class="st8">C0</tspan></text></g><g id="shape323-59" transform="translate(433.368,-34.8028)"><title>Duration (horizontal) .323</title><desc>tevent-C2</desc><path d="M0 136.34 L51.02 136.34" class="st5"/><text x="9.71" y="151.01" class="st7">t<tspan class="st8" dy=".287em">event</tspan><tspan class="st8">-</tspan><tspan class="st8">C</tspan><tspan class="st8">2</tspan></text></g><g id="shape324-71" transform="translate(382.344,-34.8028)"><title>Duration (horizontal) .324</title><desc>tevent-C1</desc><path d="M0 136.34 L51.02 136.34" class="st5"/><text x="12.55" y="160.88" class="st7">t<tspan class="st8" dy=".287em">event</tspan><tspan class="st8">-</tspan><tspan class="st8">C</tspan><tspan class="st8">1</tspan></text></g><g id="shape218-83" transform="translate(47.622,-41.9777)"><title>Sheet.218</title><path d="M0 136.06 L488.34 136.06" class="st9"/></g><g id="shape221-89" transform="translate(58.9606,-114.945)"><title>Duration (horizontal) .221</title><desc>Connection Interval</desc><path d="M0 141.12 L0 132.12 L0 141.12 ZM272.13 141.12 L272.13 132.12 L272.13 141.12 Z" class="st11"/><path d="M0 136.62 L272.13 136.62" class="st12"/><path d="M0 141.12 L0 132.12" class="st13"/><path class="st13"/><path d="M272.13 141.12 L272.13 132.12" class="st13"/><path class="st13"/><text x="93.09" y="133.63" class="st15">Connection Interval</text></g><g id="shape283-103" transform="translate(467.273,94.0852) rotate(90)"><title>Sheet.283</title><path d="M0 136.06 L14.91 136.06" class="st16"/></g><g id="shape284-106" transform="translate(518.297,94.0852) rotate(90)"><title>Sheet.284</title><path d="M0 136.06 L14.91 136.06" class="st16"/></g><g id="shape285-109" transform="translate(569.32,94.0852) rotate(90)"><title>Sheet.285</title><path d="M0 136.06 L14.91 136.06" class="st16"/></g><g id="shape286-112" transform="translate(620.344,94.0852) rotate(90)"><title>Sheet.286</title><path d="M0 136.06 L14.91 136.06" class="st16"/></g><g id="shape291-115" transform="translate(195.024,94.0852) rotate(90)"><title>Sheet.291</title><path d="M0 136.06 L14.91 136.06" class="st16"/></g><g id="shape292-118" transform="translate(246.047,94.0852) rotate(90)"><title>Sheet.292</title><path d="M0 136.06 L14.91 136.06" class="st16"/></g><g id="shape293-121" transform="translate(297.071,94.0852) rotate(90)"><title>Sheet.293</title><path d="M0 136.06 L14.91 136.06" class="st16"/></g><g id="shape294-124" transform="translate(348.094,94.0852) rotate(90)"><title>Sheet.294</title><path d="M0 136.06 L14.91 136.06" class="st16"/></g><g id="shape326-127" transform="translate(331.087,-41.9777)"><title>Sheet.326</title><desc>C 0</desc><rect width="39.685" height="55.913" x="0" y="80.15" class="st2"/><text x="16.73" y="105.11" class="st3">C <tspan x="17.56" class="st4" dy="1.2em">0</tspan></text></g><g id="shape327-131" transform="translate(382.11,-41.9777)"><title>Sheet.327</title><desc>C 1</desc><rect width="39.685" height="55.913" x="0" y="80.15" class="st2"/><text x="16.73" y="105.11" class="st3">C <tspan x="17.56" class="st4" dy="1.2em">1</tspan></text></g><g id="shape328-135" transform="translate(433.134,-41.9776)"><title>Sheet.328</title><desc>C 2</desc><rect width="39.685" height="55.913" x="0" y="80.15" class="st2"/><text x="16.73" y="105.11" class="st3">C <tspan x="17.56" class="st4" dy="1.2em">2</tspan></text></g><g id="shape329-139" transform="translate(161.008,-41.9776)"><title>Sheet.329</title><desc>C 2</desc><rect width="39.685" height="55.913" x="0" y="80.15" class="st2"/><text x="16.73" y="105.11" class="st3">C <tspan x="17.56" class="st4" dy="1.2em">2</tspan></text></g><g id="shape330-143" transform="translate(212.031,-41.9776)"><title>Sheet.330</title><desc>C 3</desc><rect width="39.685" height="55.913" x="0" y="80.15" class="st2"/><text x="16.73" y="105.11" class="st3">C <tspan x="17.56" class="st4" dy="1.2em">3</tspan></text></g><g id="shape331-147" transform="translate(212.032,-34.8027)"><title>Duration (horizontal) .331</title><desc>tevent-C3</desc><path d="M0 136.34 L51.02 136.34" class="st5"/><text x="12.55" y="160.88" class="st7">t<tspan class="st8" dy=".287em">event</tspan><tspan class="st8">-</tspan><tspan class="st8">C</tspan><tspan class="st8">3</tspan></text></g><g id="shape332-159" transform="translate(263.055,-41.9777)"><title>Sheet.332</title><desc>S</desc><rect width="56.693" height="55.913" x="0" y="80.15" class="st2"/><text x="25.51" y="111.11" class="st3">S</text></g><g id="shape333-162" transform="translate(399.118,94.0852) rotate(90)"><title>Sheet.333</title><path d="M0 136.06 L14.91 136.06" class="st16"/></g><g id="shape334-165" transform="translate(489.827,-71.798)"><title>Sheet.334</title><path d="M0 136.06 L39.69 136.06" class="st17"/></g></g></svg>