<svg xmlns="http://www.w3.org/2000/svg" xmlns:ev="http://www.w3.org/2001/xml-events" xmlns:xlink="http://www.w3.org/1999/xlink" width="792.38" height="182.826" class="st13" color-interpolation-filters="sRGB" viewBox="0 0 594.285 137.119" xml:space="preserve"><style type="text/css">.st1,.st2{stroke-linecap:round;stroke-linejoin:round;stroke-width:.72}.st1{fill:#fff;stroke:none}.st2{marker-end:url(#mrkr13-8)}.st2,.st3,.st4{stroke:#000}.st3{fill:#000;fill-opacity:1;stroke-opacity:1;stroke-width:.22222222222222}.st4{fill:none;stroke-linecap:round;stroke-linejoin:round;stroke-width:.72}.st5{fill:#000;font-family:Arial;font-size:.833336em}.st6{font-size:1em}.st7{fill:none}.st8{marker-end:url(#mrkr12-21);marker-start:url(#mrkr12-19)}.st8,.st9{stroke:#000;stroke-linecap:round;stroke-linejoin:round;stroke-width:.24}.st10{fill:#000;fill-opacity:1;stroke:#000;stroke-opacity:1;stroke-width:.08695652173913}.st11{fill:#000;font-family:Arial;font-size:.666664em}.st12{baseline-shift:-32.4939%;font-size:.649878em}.st13{fill:none;fill-rule:evenodd;font-size:12px;overflow:visible;stroke-linecap:square;stroke-miterlimit:3}</style><defs id="Markers"><g id="lend13"><path d="M 3 1 L 0 0 L 3 -1 L 3 1" style="stroke:none"/></g><marker id="mrkr13-8" class="st3" markerUnits="strokeWidth" orient="auto" overflow="visible" refX="-13.5"><use transform="scale(-4.5,-4.5)" xlink:href="#lend13"/></marker><g id="lend12"><path d="M 3 1 L 0 0 L 3 -1" style="stroke-linecap:round;stroke-linejoin:round;fill:none"/></g><marker id="mrkr12-19" class="st10" markerUnits="strokeWidth" orient="auto" overflow="visible"><use transform="scale(11.5)" xlink:href="#lend12"/></marker><marker id="mrkr12-21" class="st10" markerUnits="strokeWidth" orient="auto" overflow="visible"><use transform="scale(-11.5,-11.5)" xlink:href="#lend12"/></marker></defs><g><title>VBackground-1</title><g id="shape1000-1"><title>Solid.1000</title><rect width="594.285" height="137.119" x="0" y="0" class="st1"/></g></g><g><title>Page-1</title><g id="shape1-3" transform="translate(31.3303,-40.3069)"><title>Sheet.1</title><path d="M0 137.12 L528.07 137.12" class="st2"/></g><g id="shape2-9" transform="translate(50.5737,-40.3069)"><title>Sheet.2</title><desc>C0</desc><rect width="17.607" height="74.092" x="0" y="63.028" class="st4"/><text x="5.19" y="97.07" class="st5">C<tspan x="6.02" class="st6" dy="1.2em">0</tspan></text></g><g id="shape3-13" transform="translate(50.9199,-28.6266)"><title>Duration (horizontal) .6</title><desc>tevent-C0</desc><path d="M0 142.18 L0 133.18 L0 142.18 ZM33.17 142.18 L33.17 133.18 L33.17 142.18 Z" class="st7"/><path d="M0 137.68 L33.17 137.68" class="st8"/><path d="M0 142.18 L0 133.18" class="st9"/><path class="st9"/><path d="M33.17 142.18 L33.17 133.18" class="st9"/><path class="st9"/><text x="4.55" y="151.14" class="st11">t<tspan class="st12" dy=".287em">event</tspan><tspan class="st12">-</tspan><tspan class="st12">C0</tspan></text></g><g id="shape4-30" transform="translate(84.1255,-40.3069)"><title>Sheet.4</title><desc>C1</desc><rect width="17.607" height="74.092" x="0" y="63.028" class="st4"/><text x="5.19" y="97.07" class="st5">C<tspan x="6.02" class="st6" dy="1.2em">1</tspan></text></g><g id="shape5-34" transform="translate(240.564,-40.3069)"><title>Sheet.5</title><desc>C0</desc><rect width="17.607" height="74.092" x="0" y="63.028" class="st4"/><text x="5.19" y="97.07" class="st5">C<tspan x="6.02" class="st6" dy="1.2em">0</tspan></text></g><g id="shape8-38" transform="translate(50.5737,-102.945)"><title>Duration (horizontal) .8</title><desc>connectionInterval 0</desc><path d="M0 142.18 L0 133.18 L0 142.18 ZM189.99 142.18 L189.99 133.18 L189.99 142.18 Z" class="st7"/><path d="M0 137.68 L189.99 137.68" class="st8"/><path d="M0 142.18 L0 133.18" class="st9"/><path class="st9"/><path d="M189.99 142.18 L189.99 133.18" class="st9"/><path class="st9"/><text x="59.36" y="149.72" class="st11">connectionInterval 0</text></g><g id="shape9-50" transform="translate(240.629,-102.945)"><title>Duration (horizontal) .9</title><desc>connectionInterval 0</desc><path d="M0 142.18 L0 133.18 L0 142.18 ZM191.55 142.18 L191.55 133.18 L191.55 142.18 Z" class="st7"/><path d="M0 137.68 L191.55 137.68" class="st8"/><path d="M0 142.18 L0 133.18" class="st9"/><path class="st9"/><path d="M191.55 142.18 L191.55 133.18" class="st9"/><path class="st9"/><text x="57.8" y="151.14" class="st11">connectionInterval 0</text></g><g id="shape10-62" transform="translate(432.47,-40.3069)"><title>Sheet.10</title><desc>C0</desc><rect width="17.607" height="74.092" x="0" y="63.028" class="st4"/><text x="5.19" y="97.07" class="st5">C<tspan x="6.02" class="st6" dy="1.2em">0</tspan></text></g><g id="shape11-66" transform="translate(434.104,-28.6266)"><title>Dimension Horizontal .6</title><desc>tevent-C0</desc><path d="M0 142.18 L0 133.18 L0 142.18 ZM31.88 142.18 L31.88 133.18 L31.88 142.18 Z" class="st7"/><path d="M0 137.68 L31.88 137.68" class="st8"/><path d="M0 142.18 L0 133.18" class="st9"/><path class="st9"/><path d="M31.88 142.18 L31.88 133.18" class="st9"/><path class="st9"/><text x="3.92" y="151.14" class="st11">t<tspan class="st12" dy=".287em">event</tspan><tspan class="st12">-</tspan><tspan class="st12">C0</tspan></text></g><g id="shape12-81" transform="translate(466.022,-40.3069)"><title>Sheet.12</title><desc>C1</desc><rect width="17.607" height="74.092" x="0" y="63.028" class="st4"/><text x="5.19" y="97.07" class="st5">C<tspan x="6.02" class="st6" dy="1.2em">1</tspan></text></g><g id="shape35-85" transform="translate(84.1255,-57.9627)"><title>Duration (horizontal) .35</title><desc>connectionInterval 1</desc><path d="M0 142.18 L0 133.18 L0 142.18 ZM381.93 142.18 L381.93 133.18 L381.93 142.18 Z" class="st7"/><path d="M0 137.68 L381.93 137.68" class="st8"/><path d="M0 142.18 L0 133.18" class="st9"/><path class="st9"/><path d="M381.93 142.18 L381.93 133.18" class="st9"/><path class="st9"/><text x="180.3" y="146.89" class="st11">connectionInterval 1</text></g></g></svg>