<svg xmlns="http://www.w3.org/2000/svg" xmlns:ev="http://www.w3.org/2001/xml-events" xmlns:xlink="http://www.w3.org/1999/xlink" width="793.701" height="181.417" class="st18" color-interpolation-filters="sRGB" viewBox="0 0 595.276 136.063" xml:space="preserve"><style type="text/css">.st1,.st2{stroke-linecap:round;stroke-linejoin:round;stroke-width:.72}.st1{fill:#fff;stroke:none}.st2{marker-end:url(#mrkr13-8)}.st2,.st3,.st4{stroke:#000}.st3{fill:#000;fill-opacity:1;stroke-opacity:1;stroke-width:.22222222222222}.st4{fill:none;stroke-linecap:round;stroke-linejoin:round;stroke-width:.72}.st5{fill:#000;font-family:Arial;font-size:.833336em}.st6{font-size:1em}.st7{fill:none;stroke:none;stroke-linecap:round;stroke-linejoin:round;stroke-width:.72}.st8{fill:#000;font-family:Arial;font-size:1.99999em}.st9{fill:none}.st10{marker-end:url(#mrkr12-27);marker-start:url(#mrkr12-25)}.st10,.st11{stroke:#000;stroke-linecap:round;stroke-linejoin:round;stroke-width:.24}.st12{fill:#000;fill-opacity:1;stroke:#000;stroke-opacity:1;stroke-width:.08695652173913}.st13{baseline-shift:-25.9949%;font-size:.519899em}.st14{font-size:.799995em}.st15{baseline-shift:-32.4947%;font-size:.649894em}.st16{fill:#000;font-family:Arial;font-size:.666664em}.st17{baseline-shift:-32.4939%;font-size:.649878em}.st18{fill:none;fill-rule:evenodd;font-size:12px;overflow:visible;stroke-linecap:square;stroke-miterlimit:3}</style><defs id="Markers"><g id="lend13"><path d="M 3 1 L 0 0 L 3 -1 L 3 1" style="stroke:none"/></g><marker id="mrkr13-8" class="st3" markerUnits="strokeWidth" orient="auto" overflow="visible" refX="-13.5"><use transform="scale(-4.5,-4.5)" xlink:href="#lend13"/></marker><g id="lend12"><path d="M 3 1 L 0 0 L 3 -1" style="stroke-linecap:round;stroke-linejoin:round;fill:none"/></g><marker id="mrkr12-25" class="st12" markerUnits="strokeWidth" orient="auto" overflow="visible"><use transform="scale(11.5)" xlink:href="#lend12"/></marker><marker id="mrkr12-27" class="st12" markerUnits="strokeWidth" orient="auto" overflow="visible"><use transform="scale(-11.5,-11.5)" xlink:href="#lend12"/></marker></defs><g><title>VBackground-1</title><g id="shape1000-1"><title>Solid.1000</title><rect width="595.276" height="136.063" x="0" y="0" class="st1"/></g></g><g><title>Page-1</title><g id="shape4-3" transform="translate(21.2598,-46.1715)"><title>Sheet.4</title><path d="M0 136.06 L507.43 136.06" class="st2"/></g><g id="shape7-9" transform="translate(40.5032,-46.2145)"><title>Sheet.7</title><desc>C0</desc><rect width="12.615" height="53.694" x="0" y="82.368" class="st4"/><text x="4" y="106.22" class="st5">C<tspan x="4" class="st6" dy="1.2em">0</tspan></text></g><g id="shape10-13" transform="translate(499.99,-38.4169)"><title>Sheet.10</title><desc>time</desc><rect width="104" height="16" x="0" y="120.063" class="st7"/><text x="42.55" y="131.06" class="st5">time</text></g><g id="shape12-16" transform="translate(464.557,-55.7795)"><title>Sheet.12</title><desc>…</desc><rect width="36.85" height="16" x="0" y="120.063" class="st7"/><text x="6.43" y="135.26" class="st8">…</text></g><g id="shape19-19" transform="translate(40.5354,-106.206)"><title>Duration (horizontal) .19</title><desc>connectionInterval (&gt; 8*tevent ms)</desc><path d="M0 141.12 L0 132.12 L0 141.12 ZM232.68 141.12 L232.68 132.12 L232.68 141.12 Z" class="st9"/><path d="M0 136.62 L232.68 136.62" class="st10"/><path d="M0 141.12 L0 132.12" class="st11"/><path class="st11"/><path d="M232.68 141.12 L232.68 132.12" class="st11"/><path class="st11"/><text x="48.25" y="130.84" class="st5">connectionInterval (&gt; 8*t<tspan class="st13" dy=".287em">event</tspan><tspan class="st14" dy="-.186em"> </tspan><tspan class="st14">ms</tspan>)</text></g><g id="shape21-36" transform="translate(84.5242,-46.3661)"><title>Sheet.21</title><desc>C2</desc><rect width="12.615" height="53.694" x="0" y="82.368" class="st4"/><text x="4" y="106.22" class="st5">C<tspan x="4" class="st6" dy="1.2em">2</tspan></text></g><g id="shape22-40" transform="translate(105.378,-46.3661)"><title>Sheet.22</title><desc>C3</desc><rect width="12.615" height="53.694" x="0" y="82.368" class="st4"/><text x="4" y="106.22" class="st5">C<tspan x="4" class="st6" dy="1.2em">3</tspan></text></g><g id="shape24-44" transform="translate(148.644,-46.3661)"><title>Sheet.24</title><desc>C5</desc><rect width="12.615" height="53.694" x="0" y="82.368" class="st4"/><text x="4" y="106.22" class="st5">C<tspan x="4" class="st6" dy="1.2em">5</tspan></text></g><g id="shape25-48" transform="translate(169.97,-46.3807)"><title>Sheet.25</title><desc>C6</desc><rect width="12.615" height="53.694" x="0" y="82.368" class="st4"/><text x="4" y="106.22" class="st5">C<tspan x="4" class="st6" dy="1.2em">6</tspan></text></g><g id="shape26-52" transform="translate(191.196,-46.3734)"><title>Sheet.26</title><desc>C7</desc><rect width="12.615" height="53.694" x="0" y="82.368" class="st4"/><text x="4" y="106.22" class="st5">C<tspan x="4" class="st6" dy="1.2em">7</tspan></text></g><g id="shape31-56" transform="translate(89.9747,-7.08661)"><title>Sheet.31</title><desc>Note: All connections have same (minimum) tevent</desc><rect width="225.764" height="16" x="0" y="120.063" class="st7"/><text x="4.34" y="131.06" class="st5">Note: All connections have same (minimum) t<tspan class="st15" dy=".287em">event</tspan></text></g><g id="shape32-60" transform="translate(274.022,-46.4709)"><title>Sheet.32</title><desc>C0</desc><rect width="12.615" height="53.694" x="0" y="82.368" class="st4"/><text x="4" y="106.22" class="st5">C<tspan x="4" class="st6" dy="1.2em">0</tspan></text></g><g id="shape34-64" transform="translate(318.043,-46.2495)"><title>Sheet.34</title><desc>C2</desc><rect width="12.615" height="53.694" x="0" y="82.368" class="st4"/><text x="4" y="106.22" class="st5">C<tspan x="4" class="st6" dy="1.2em">2</tspan></text></g><g id="shape35-68" transform="translate(338.896,-46.2495)"><title>Sheet.35</title><desc>C3</desc><rect width="12.615" height="53.694" x="0" y="82.368" class="st4"/><text x="4" y="106.22" class="st5">C<tspan x="4" class="st6" dy="1.2em">3</tspan></text></g><g id="shape37-72" transform="translate(382.162,-46.2495)"><title>Sheet.37</title><desc>C5</desc><rect width="12.615" height="53.694" x="0" y="82.368" class="st4"/><text x="4" y="106.22" class="st5">C<tspan x="4" class="st6" dy="1.2em">5</tspan></text></g><g id="shape38-76" transform="translate(403.488,-46.2641)"><title>Sheet.38</title><desc>C6</desc><rect width="12.615" height="53.694" x="0" y="82.368" class="st4"/><text x="4" y="106.22" class="st5">C<tspan x="4" class="st6" dy="1.2em">6</tspan></text></g><g id="shape39-80" transform="translate(424.715,-46.2568)"><title>Sheet.39</title><desc>C7</desc><rect width="12.615" height="53.694" x="0" y="82.368" class="st4"/><text x="4" y="106.22" class="st5">C<tspan x="4" class="st6" dy="1.2em">7</tspan></text></g><g id="shape40-84" transform="translate(39.3605,-28.6266)"><title>Duration (horizontal) .40</title><desc>2*tevent</desc><path d="M0 141.12 L0 132.12 L0 141.12 ZM44.76 141.12 L44.76 132.12 L44.76 141.12 Z" class="st9"/><path d="M0 136.62 L44.76 136.62" class="st10"/><path d="M0 141.12 L0 132.12" class="st11"/><path class="st11"/><path d="M44.76 141.12 L44.76 132.12" class="st11"/><path class="st11"/><text x="11.21" y="130.84" class="st16">2*t<tspan class="st17" dy=".287em">event</tspan></text></g><g id="shape42-97" transform="translate(105.005,-30.4534)"><title>Duration (horizontal) .42</title><desc>2*tevent</desc><path d="M0 141.12 L0 132.12 L0 141.12 ZM44.76 141.12 L44.76 132.12 L44.76 141.12 Z" class="st9"/><path d="M0 136.62 L44.76 136.62" class="st10"/><path d="M0 141.12 L0 132.12" class="st11"/><path class="st11"/><path d="M44.76 141.12 L44.76 132.12" class="st11"/><path class="st11"/><text x="11.21" y="130.84" class="st16">2*t<tspan class="st17" dy=".287em">event</tspan></text></g><g id="shape43-110" transform="translate(169.903,-30.4915)"><title>Duration (horizontal) .43</title><desc>tevent</desc><path d="M0 141.12 L0 132.12 L0 141.12 ZM22.01 141.12 L22.01 132.12 L22.01 141.12 Z" class="st9"/><path d="M0 136.62 L22.01 136.62" class="st10"/><path d="M0 141.12 L0 132.12" class="st11"/><path class="st11"/><path d="M22.01 141.12 L22.01 132.12" class="st11"/><path class="st11"/><text x="3.57" y="130.84" class="st16">t<tspan class="st17" dy=".287em">event</tspan></text></g><g id="shape44-123" transform="translate(273.219,-29.7455)"><title>Duration (horizontal) .44</title><desc>2*tevent</desc><path d="M0 141.12 L0 132.12 L0 141.12 ZM44.76 141.12 L44.76 132.12 L44.76 141.12 Z" class="st9"/><path d="M0 136.62 L44.76 136.62" class="st10"/><path d="M0 141.12 L0 132.12" class="st11"/><path class="st11"/><path d="M44.76 141.12 L44.76 132.12" class="st11"/><path class="st11"/><text x="11.21" y="130.84" class="st16">2*t<tspan class="st17" dy=".287em">event</tspan></text></g><g id="shape45-136" transform="translate(338.863,-31.5723)"><title>Duration (horizontal) .45</title><desc>2*tevent</desc><path d="M0 141.12 L0 132.12 L0 141.12 ZM44.76 141.12 L44.76 132.12 L44.76 141.12 Z" class="st9"/><path d="M0 136.62 L44.76 136.62" class="st10"/><path d="M0 141.12 L0 132.12" class="st11"/><path class="st11"/><path d="M44.76 141.12 L44.76 132.12" class="st11"/><path class="st11"/><text x="11.21" y="130.84" class="st16">2*t<tspan class="st17" dy=".287em">event</tspan></text></g><g id="shape46-149" transform="translate(403.762,-31.6104)"><title>Duration (horizontal) .46</title><desc>tevent</desc><path d="M0 141.12 L0 132.12 L0 141.12 ZM22.01 141.12 L22.01 132.12 L22.01 141.12 Z" class="st9"/><path d="M0 136.62 L22.01 136.62" class="st10"/><path d="M0 141.12 L0 132.12" class="st11"/><path class="st11"/><path d="M22.01 141.12 L22.01 132.12" class="st11"/><path class="st11"/><text x="3.57" y="130.84" class="st16">t<tspan class="st17" dy=".287em">event</tspan></text></g></g></svg>