<svg xmlns="http://www.w3.org/2000/svg" xmlns:ev="http://www.w3.org/2001/xml-events" xmlns:xlink="http://www.w3.org/1999/xlink" width="796.231" height="182.388" class="st13" color-interpolation-filters="sRGB" viewBox="0 0 597.173 136.791" xml:space="preserve"><style type="text/css">.st1,.st2{stroke-linecap:round;stroke-linejoin:round;stroke-width:.72}.st1{fill:#fff;stroke:none}.st2{marker-end:url(#mrkr13-8)}.st2,.st3,.st4{stroke:#000}.st3{fill:#000;fill-opacity:1;stroke-opacity:1;stroke-width:.22222222222222}.st4{fill:none;stroke-linecap:round;stroke-linejoin:round;stroke-width:.72}.st5{fill:#000;font-family:Arial;font-size:.833336em}.st6{fill:none}.st7{marker-end:url(#mrkr12-23);marker-start:url(#mrkr12-21);stroke-linecap:round;stroke-linejoin:round;stroke-width:.24}.st7,.st8,.st9{stroke:#000}.st8{stroke-linecap:round;stroke-linejoin:round;stroke-width:.24}.st9{fill:#000;fill-opacity:1;stroke-opacity:1;stroke-width:.08695652173913}.st10{fill:#000;font-family:Arial;font-size:.666664em}.st11{fill:none;stroke:#000;stroke-dasharray:10.8,6.48;stroke-linecap:round;stroke-linejoin:round;stroke-width:.72}.st12{font-size:1em}.st13{fill:none;fill-rule:evenodd;font-size:12px;overflow:visible;stroke-linecap:square;stroke-miterlimit:3}</style><defs id="Markers"><g id="lend13"><path d="M 3 1 L 0 0 L 3 -1 L 3 1" style="stroke:none"/></g><marker id="mrkr13-8" class="st3" markerUnits="strokeWidth" orient="auto" overflow="visible" refX="-13.5"><use transform="scale(-4.5,-4.5)" xlink:href="#lend13"/></marker><g id="lend12"><path d="M 3 1 L 0 0 L 3 -1" style="stroke-linecap:round;stroke-linejoin:round;fill:none"/></g><marker id="mrkr12-21" class="st9" markerUnits="strokeWidth" orient="auto" overflow="visible"><use transform="scale(11.5)" xlink:href="#lend12"/></marker><marker id="mrkr12-23" class="st9" markerUnits="strokeWidth" orient="auto" overflow="visible"><use transform="scale(-11.5,-11.5)" xlink:href="#lend12"/></marker></defs><g><title>VBackground-1</title><g id="shape1000-1"><title>Solid.1000</title><rect width="597.173" height="136.791" x="0" y="0" class="st1"/></g></g><g><title>Page-1</title><g id="shape1-3" transform="translate(28.2458,-28.2557)"><title>Sheet.1</title><path d="M0 136.79 L507.7 136.79" class="st2"/></g><g id="shape2-9" transform="translate(48.2332,-28.2557)"><title>Sheet.2</title><desc>ADV</desc><rect width="123.944" height="65.59" x="0" y="71.201" class="st4"/><text x="51.69" y="107" class="st5">ADV</text></g><g id="shape5-12" transform="translate(245.57,-28.4062)"><title>Sheet.5</title><desc>P</desc><rect width="18.288" height="65.59" x="0" y="71.201" class="st4"/><text x="5.81" y="107" class="st5">P</text></g><g id="shape8-15" transform="translate(172.177,-101.985)"><title>Duration (horizontal) .8</title><desc>transmitWindowDelay + WO</desc><path d="M0 141.85 L0 132.85 L0 141.85 ZM73.39 141.85 L73.39 132.85 L73.39 141.85 Z" class="st6"/><path d="M0 137.35 L73.39 137.35" class="st7"/><path d="M0 141.85 L0 132.85" class="st8"/><path class="st8"/><path d="M73.39 141.85 L73.39 132.85" class="st8"/><path class="st8"/><text x="-13.32" y="132.03" class="st10">transmitWindowDelay + WO</text></g><g id="shape3-29" transform="translate(356.193,-28.201)"><title>Sheet.3</title><desc>P</desc><rect width="18.288" height="65.59" x="0" y="71.201" class="st4"/><text x="5.81" y="107" class="st5">P</text></g><g id="shape4-32" transform="translate(245.57,-101.621)"><title>Duration (horizontal) .4</title><desc>CI</desc><path d="M0 141.85 L0 132.85 L0 141.85 ZM110.62 141.85 L110.62 132.85 L110.62 141.85 Z" class="st6"/><path d="M0 137.35 L110.62 137.35" class="st7"/><path d="M0 141.85 L0 132.85" class="st8"/><path class="st8"/><path d="M110.62 141.85 L110.62 132.85" class="st8"/><path class="st8"/><text x="50.68" y="131.73" class="st10">CI</text></g><g id="shape9-44" transform="translate(153.889,-28.2535)"><title>Sheet.9</title><desc>CREQ</desc><path d="M0 136.79 L18.29 136.79 L18.29 71.2 L0 71.2 L0 136.79 Z" class="st11"/><text x="5.53" y="89" class="st5">C<tspan x="5.53" class="st12" dy="1.2em">R</tspan><tspan x="5.81" class="st12" dy="1.2em">E</tspan><tspan x="5.25" class="st12" dy="1.2em">Q</tspan></text></g><g id="shape10-50" transform="translate(133.902,-28.2535)"><title>Sheet.10</title><desc>ADV</desc><rect width="18.288" height="65.59" x="0" y="71.201" class="st4"/><text x="5.81" y="95" class="st5">A<tspan x="5.53" class="st12" dy="1.2em">D</tspan><tspan x="5.81" class="st12" dy="1.2em">V</tspan></text></g><g id="shape11-55" transform="translate(356.193,-101.621)"><title>Duration (horizontal) .11</title><desc>CI</desc><path d="M0 141.85 L0 132.85 L0 141.85 ZM110.62 141.85 L110.62 132.85 L110.62 141.85 Z" class="st6"/><path d="M0 137.35 L110.62 137.35" class="st7"/><path d="M0 141.85 L0 132.85" class="st8"/><path class="st8"/><path d="M110.62 141.85 L110.62 132.85" class="st8"/><path class="st8"/><text x="51.94" y="131.73" class="st10">CI</text></g><g id="shape12-67" transform="translate(466.765,-28.2381)"><title>Sheet.12</title><desc>P</desc><rect width="18.288" height="65.59" x="0" y="71.201" class="st4"/><text x="5.81" y="107" class="st5">P</text></g></g></svg>