<svg xmlns="http://www.w3.org/2000/svg" xmlns:ev="http://www.w3.org/2001/xml-events" xmlns:xlink="http://www.w3.org/1999/xlink" width="793.701" height="181.417" class="st15" color-interpolation-filters="sRGB" viewBox="0 0 595.276 136.063" xml:space="preserve"><style type="text/css">.st1,.st2{stroke-linecap:round;stroke-linejoin:round;stroke-width:.72}.st1{fill:#fff;stroke:none}.st2{marker-end:url(#mrkr13-8)}.st2,.st3,.st4{stroke:#000}.st3{fill:#000;fill-opacity:1;stroke-opacity:1;stroke-width:.22222222222222}.st4{fill:none;stroke-linecap:round;stroke-linejoin:round;stroke-width:.72}.st5{fill:#000;font-family:Arial;font-size:.833336em}.st6{font-size:1em}.st7{stroke:none;stroke-linecap:round;stroke-linejoin:round;stroke-width:.72}.st7,.st8{fill:none}.st9{marker-end:url(#mrkr12-27);marker-start:url(#mrkr12-25)}.st10,.st9{stroke:#000;stroke-linecap:round;stroke-linejoin:round;stroke-width:.24}.st11{fill:#000;fill-opacity:1;stroke:#000;stroke-opacity:1;stroke-width:.08695652173913}.st12{fill:none;stroke:#000;stroke-dasharray:5.04,3.6;stroke-linecap:round;stroke-linejoin:round;stroke-width:.72}.st13{fill:#000;font-family:Arial;font-size:.75em}.st14{baseline-shift:-32.4951%;font-size:.649902em}.st15{fill:none;fill-rule:evenodd;font-size:12px;overflow:visible;stroke-linecap:square;stroke-miterlimit:3}</style><defs id="Markers"><g id="lend13"><path d="M 3 1 L 0 0 L 3 -1 L 3 1" style="stroke:none"/></g><marker id="mrkr13-8" class="st3" markerUnits="strokeWidth" orient="auto" overflow="visible" refX="-13.5"><use transform="scale(-4.5,-4.5)" xlink:href="#lend13"/></marker><g id="lend12"><path d="M 3 1 L 0 0 L 3 -1" style="stroke-linecap:round;stroke-linejoin:round;fill:none"/></g><marker id="mrkr12-25" class="st11" markerUnits="strokeWidth" orient="auto" overflow="visible"><use transform="scale(11.5)" xlink:href="#lend12"/></marker><marker id="mrkr12-27" class="st11" markerUnits="strokeWidth" orient="auto" overflow="visible"><use transform="scale(-11.5,-11.5)" xlink:href="#lend12"/></marker></defs><g><title>VBackground-1</title><g id="shape1000-1"><title>Solid.1000</title><rect width="595.276" height="136.063" x="0" y="0" class="st1"/></g></g><g><title>Page-1</title><g id="shape6-3" transform="translate(10.2458,-65.5319)"><title>Sheet.6</title><path d="M0 136.06 L528.07 136.06" class="st2"/></g><g id="shape13-9" transform="translate(49.6063,-65.4996)"><title>Sheet.13</title><desc>Scanner</desc><rect width="333.071" height="44.638" x="0" y="91.425" class="st4"/><text x="147.91" y="116.74" class="st5">Scanner</text></g><g id="shape14-12" transform="translate(29.4892,-65.5677)"><title>Sheet.14</title><desc>C0</desc><rect width="12.615" height="44.638" x="0" y="91.425" class="st4"/><text x="4" y="110.74" class="st5">C<tspan x="4" class="st6" dy="1.2em">0</tspan></text></g><g id="shape17-16" transform="translate(511.189,-59.1641)"><title>Sheet.17</title><desc>time</desc><rect width="104" height="13.301" x="0" y="122.762" class="st7"/><text x="42.55" y="132.41" class="st5">time</text></g><g id="shape20-19" transform="translate(49.6063,-58.4793)"><title>Duration (horizontal) .20</title><desc>scanWindow</desc><path d="M0 141.12 L0 132.12 L0 141.12 ZM333.07 141.12 L333.07 132.12 L333.07 141.12 Z" class="st8"/><path d="M0 136.62 L333.07 136.62" class="st9"/><path d="M0 141.12 L0 132.12" class="st10"/><path class="st10"/><path d="M333.07 141.12 L333.07 132.12" class="st10"/><path class="st10"/><text x="191.41" y="149.97" class="st5">scanWindow</text></g><g id="shape21-33" transform="translate(346.292,-7.08661)"><title>Sheet.21</title><desc>C0</desc><path d="M0 136.06 L12.62 136.06 L12.62 91.43 L0 91.43 L0 136.06 Z" class="st12"/><text x="4" y="110.74" class="st5">C<tspan x="4" class="st6" dy="1.2em">0</tspan></text></g><g id="shape22-37" transform="translate(29.5214,-116.27)"><title>Duration (horizontal) .22</title><desc>connectionInterval</desc><path d="M0 141.12 L0 132.12 L0 141.12 ZM315.78 141.12 L315.78 132.12 L315.78 141.12 Z" class="st8"/><path d="M0 136.62 L315.78 136.62" class="st9"/><path d="M0 141.12 L0 132.12" class="st10"/><path class="st10"/><path d="M315.78 141.12 L315.78 132.12" class="st10"/><path class="st10"/><text x="117.9" y="130.84" class="st5">connectionInterval</text></g><g id="shape23-49" transform="translate(29.5114,-58.4353)"><title>Duration (horizontal) .23</title><desc>tevent-C0</desc><path d="M0 141.12 L0 132.12 L0 141.12 ZM20.09 141.12 L20.09 132.12 L20.09 141.12 Z" class="st8"/><path d="M0 136.62 L20.09 136.62" class="st9"/><path d="M0 141.12 L0 132.12" class="st10"/><path class="st10"/><path d="M20.09 141.12 L20.09 132.12" class="st10"/><path class="st10"/><text x="-3.3" y="150.38" class="st13">t<tspan class="st14" dy=".287em">event</tspan><tspan class="st14">-</tspan><tspan class="st14">C0</tspan></text></g></g></svg>