<svg xmlns="http://www.w3.org/2000/svg" xmlns:ev="http://www.w3.org/2001/xml-events" xmlns:xlink="http://www.w3.org/1999/xlink" width="793.701" height="181.417" class="st12" color-interpolation-filters="sRGB" viewBox="0 0 595.276 136.063" xml:space="preserve"><style type="text/css">.st1,.st2{stroke-linecap:round;stroke-linejoin:round;stroke-width:.72}.st1{fill:#fff;stroke:none}.st2{marker-end:url(#mrkr13-8)}.st2,.st3,.st4{stroke:#000}.st3{fill:#000;fill-opacity:1;stroke-opacity:1;stroke-width:.22222222222222}.st4{fill:none;stroke-linecap:round;stroke-linejoin:round;stroke-width:.72}.st5{fill:#000;font-family:Arial;font-size:.833336em}.st6{font-size:1em}.st7{fill:none}.st8{marker-end:url(#mrkr12-21);marker-start:url(#mrkr12-19)}.st8,.st9{stroke:#000;stroke-linecap:round;stroke-linejoin:round;stroke-width:.24}.st10{fill:#000;fill-opacity:1;stroke:#000;stroke-opacity:1;stroke-width:.08695652173913}.st11{fill:none;stroke:none;stroke-linecap:round;stroke-linejoin:round;stroke-width:.72}.st12{fill:none;fill-rule:evenodd;font-size:12px;overflow:visible;stroke-linecap:square;stroke-miterlimit:3}</style><defs id="Markers"><g id="lend13"><path d="M 3 1 L 0 0 L 3 -1 L 3 1" style="stroke:none"/></g><marker id="mrkr13-8" class="st3" markerUnits="strokeWidth" orient="auto" overflow="visible" refX="-13.5"><use transform="scale(-4.5,-4.5)" xlink:href="#lend13"/></marker><g id="lend12"><path d="M 3 1 L 0 0 L 3 -1" style="stroke-linecap:round;stroke-linejoin:round;fill:none"/></g><marker id="mrkr12-19" class="st10" markerUnits="strokeWidth" orient="auto" overflow="visible"><use transform="scale(11.5)" xlink:href="#lend12"/></marker><marker id="mrkr12-21" class="st10" markerUnits="strokeWidth" orient="auto" overflow="visible"><use transform="scale(-11.5,-11.5)" xlink:href="#lend12"/></marker></defs><g><title>VBackground-1</title><g id="shape1000-1"><title>Solid.1000</title><rect width="595.276" height="136.063" x="0" y="0" class="st1"/></g></g><g><title>Page-1</title><g id="shape1-3" transform="translate(49.6063,-60.3128)"><title>Sheet.1</title><path d="M0 136.06 L450.44 136.06" class="st2"/></g><g id="shape2-9" transform="translate(55.6453,-60.3128)"><title>Sheet.2</title><desc>Scanner primary</desc><rect width="55.103" height="49.53" x="0" y="86.533" class="st4"/><text x="8.93" y="108.3" class="st5">Scanner<tspan x="10.88" class="st6" dy="1.2em">primary</tspan></text></g><g id="shape11-13" transform="translate(55.6161,-52.1359)"><title>Duration (horizontal) .60</title><desc>scanWindow</desc><path d="M0 141.12 L0 132.12 L0 141.12 ZM199.58 141.12 L199.58 132.12 L199.58 141.12 Z" class="st7"/><path d="M0 136.62 L199.58 136.62" class="st8"/><path d="M0 141.12 L0 132.12" class="st9"/><path class="st9"/><path d="M199.58 141.12 L199.58 132.12" class="st9"/><path class="st9"/><text x="72.18" y="150.68" class="st5">scanWindow</text></g><g id="shape3-27" transform="translate(495.021,-53.0881)"><title>Sheet.3</title><desc>time</desc><rect width="73.854" height="14.759" x="0" y="121.304" class="st11"/><text x="27.48" y="131.68" class="st5">time</text></g><g id="shape12-30" transform="translate(55.1821,-24.969)"><title>Duration (horizontal) .12</title><desc>scanInterval</desc><path d="M0 141.12 L0 132.12 L0 141.12 ZM232.91 141.12 L232.91 132.12 L232.91 141.12 Z" class="st7"/><path d="M0 136.62 L232.91 136.62" class="st8"/><path d="M0 141.12 L0 132.12" class="st9"/><path class="st9"/><path d="M232.91 141.12 L232.91 132.12" class="st9"/><path class="st9"/><text x="90.35" y="150.68" class="st5">scanInterval</text></g><g id="shape13-42" transform="translate(288.088,-60.3461)"><title>Sheet.13</title><desc>Scanner primary</desc><rect width="199.507" height="49.53" x="0" y="86.533" class="st4"/><text x="81.13" y="108.3" class="st5">Scanner<tspan x="83.09" class="st6" dy="1.2em">primary</tspan></text></g><g id="shape14-46" transform="translate(181.261,-60.3494)"><title>Sheet.14</title><desc>Scanner primary</desc><rect width="74.315" height="49.53" x="0" y="86.533" class="st4"/><text x="18.53" y="108.3" class="st5">Scanner<tspan x="20.49" class="st6" dy="1.2em">primary</tspan></text></g><g id="shape15-50" transform="translate(114.758,-60.3461)"><title>Sheet.15</title><desc>Scanner secondary</desc><rect width="62.492" height="49.53" x="0" y="86.533" class="st4"/><text x="12.62" y="108.3" class="st5">Scanner<tspan x="8.18" class="st6" dy="1.2em">secondary</tspan></text></g></g></svg>