<svg xmlns="http://www.w3.org/2000/svg" xmlns:ev="http://www.w3.org/2001/xml-events" xmlns:xlink="http://www.w3.org/1999/xlink" width="796.921" height="184.059" class="st14" color-interpolation-filters="sRGB" viewBox="0 0 597.69 138.044" xml:space="preserve"><style type="text/css">.st1,.st2{stroke-linecap:round;stroke-linejoin:round;stroke-width:.72}.st1{fill:#fff;stroke:none}.st2{marker-end:url(#mrkr13-8)}.st2,.st3,.st4{stroke:#000}.st3{fill:#000;fill-opacity:1;stroke-opacity:1;stroke-width:.22222222222222}.st4{fill:none;stroke-linecap:round;stroke-linejoin:round;stroke-width:.72}.st5{fill:#000;font-family:Arial;font-size:.833336em}.st6{font-size:1em}.st7{fill:none;stroke:none;stroke-linecap:round;stroke-linejoin:round;stroke-width:.72}.st8{fill:#000;font-family:Arial;font-size:1.99999em}.st9{fill:none}.st10{marker-end:url(#mrkr12-30);marker-start:url(#mrkr12-28)}.st10,.st11{stroke:#000;stroke-linecap:round;stroke-linejoin:round;stroke-width:.24}.st12{fill:#000;fill-opacity:1;stroke:#000;stroke-opacity:1;stroke-width:.08695652173913}.st13{baseline-shift:-32.4947%;font-size:.649894em}.st14{fill:none;fill-rule:evenodd;font-size:12px;overflow:visible;stroke-linecap:square;stroke-miterlimit:3}</style><defs id="Markers"><g id="lend13"><path d="M 3 1 L 0 0 L 3 -1 L 3 1" style="stroke:none"/></g><marker id="mrkr13-8" class="st3" markerUnits="strokeWidth" orient="auto" overflow="visible" refX="-13.5"><use transform="scale(-4.5,-4.5)" xlink:href="#lend13"/></marker><g id="lend12"><path d="M 3 1 L 0 0 L 3 -1" style="stroke-linecap:round;stroke-linejoin:round;fill:none"/></g><marker id="mrkr12-28" class="st12" markerUnits="strokeWidth" orient="auto" overflow="visible"><use transform="scale(11.5)" xlink:href="#lend12"/></marker><marker id="mrkr12-30" class="st12" markerUnits="strokeWidth" orient="auto" overflow="visible"><use transform="scale(-11.5,-11.5)" xlink:href="#lend12"/></marker></defs><g><title>VBackground-1</title><g id="shape1000-1"><title>Solid.1000</title><rect width="597.69" height="138.044" x="0" y="0" class="st1"/></g></g><g><title>Page-1</title><g id="shape4-3" transform="translate(10.2458,-36.5071)"><title>Sheet.4</title><path d="M0 138.04 L528.07 138.04" class="st2"/></g><g id="shape5-9" transform="translate(225.679,-36.4581)"><title>Sheet.5</title><desc>Scanner</desc><rect width="101.626" height="67.699" x="0" y="70.345" class="st4"/><text x="32.19" y="107.2" class="st5">Scanner</text></g><g id="shape7-12" transform="translate(29.4892,-36.5613)"><title>Sheet.7</title><desc>C0</desc><rect width="12.615" height="67.699" x="0" y="70.345" class="st4"/><text x="4" y="101.19" class="st5">C<tspan x="4" class="st6" dy="1.2em">0</tspan></text></g><g id="shape10-16" transform="translate(511.189,-26.8493)"><title>Sheet.10</title><desc>time</desc><rect width="104" height="20.173" x="0" y="117.871" class="st7"/><text x="42.55" y="130.96" class="st5">time</text></g><g id="shape12-19" transform="translate(364.576,-60.2647)"><title>Sheet.12</title><desc>…</desc><rect width="36.85" height="20.173" x="0" y="117.871" class="st7"/><text x="6.43" y="135.16" class="st8">…</text></g><g id="shape15-22" transform="translate(225.679,-25.666)"><title>Duration (horizontal) .15</title><desc>scanWindow</desc><path d="M0 143.1 L0 134.1 L0 143.1 ZM102.05 143.1 L102.05 134.1 L102.05 143.1 Z" class="st9"/><path d="M0 138.6 L102.05 138.6" class="st10"/><path d="M0 143.1 L0 134.1" class="st11"/><path class="st11"/><path d="M102.05 143.1 L102.05 134.1" class="st11"/><path class="st11"/><text x="22.68" y="153.85" class="st5">scanWindow</text></g><g id="shape16-36" transform="translate(333.071,-36.5493)"><title>Sheet.16</title><desc>C0</desc><rect width="12.615" height="67.699" x="0" y="70.345" class="st4"/><text x="4" y="101.19" class="st5">C<tspan x="4" class="st6" dy="1.2em">0</tspan></text></g><g id="shape19-40" transform="translate(29.5214,-113.313)"><title>Duration (horizontal) .19</title><desc>connectionInterval</desc><path d="M0 143.1 L0 134.1 L0 143.1 ZM301.31 143.1 L301.31 134.1 L301.31 143.1 Z" class="st9"/><path d="M0 138.6 L301.31 138.6" class="st10"/><path d="M0 143.1 L0 134.1" class="st11"/><path class="st11"/><path d="M301.31 143.1 L301.31 134.1" class="st11"/><path class="st11"/><text x="110.63" y="132.82" class="st5">connectionInterval</text></g><g id="shape8-52" transform="translate(29.5114,-25.5993)"><title>Duration (horizontal) .8</title><desc>∑(tevent-Cx)</desc><path d="M0 143.1 L0 134.1 L0 143.1 ZM196.26 143.1 L196.26 134.1 L196.26 143.1 Z" class="st9"/><path d="M0 138.6 L196.26 138.6" class="st10"/><path d="M0 143.1 L0 134.1" class="st11"/><path class="st11"/><path d="M196.26 143.1 L196.26 134.1" class="st11"/><path class="st11"/><text x="74.61" y="152.66" class="st5">∑(t<tspan class="st13" dy=".287em">event</tspan><tspan class="st13">-</tspan><tspan class="st13">Cx</tspan><tspan class="st6" dy="-.186em">)</tspan></text></g><g id="shape20-68" transform="translate(50.3854,-36.7524)"><title>Sheet.20</title><desc>C1</desc><rect width="12.615" height="67.699" x="0" y="70.345" class="st4"/><text x="4" y="101.19" class="st5">C<tspan x="4" class="st6" dy="1.2em">1</tspan></text></g><g id="shape21-72" transform="translate(207.07,-36.2821)"><title>Sheet.21</title><desc>C7</desc><rect width="12.615" height="67.699" x="0" y="70.345" class="st4"/><text x="4" y="101.19" class="st5">C<tspan x="4" class="st6" dy="1.2em">7</tspan></text></g><g id="shape23-76" transform="translate(68.8627,-36.2821)"><title>Sheet.23</title><desc>C2</desc><rect width="18.444" height="67.699" x="0" y="70.345" class="st4"/><text x="5.61" y="101.19" class="st5">C<tspan x="6.44" class="st6" dy="1.2em">2</tspan></text></g><g id="shape24-80" transform="translate(92.9051,-36.2821)"><title>Sheet.24</title><desc>C3</desc><rect width="12.615" height="67.699" x="0" y="70.345" class="st4"/><text x="4" y="101.19" class="st5">C<tspan x="4" class="st6" dy="1.2em">3</tspan></text></g><g id="shape25-84" transform="translate(111.382,-36.2821)"><title>Sheet.25</title><desc>C4</desc><rect width="30.35" height="67.699" x="0" y="70.345" class="st4"/><text x="8.78" y="107.2" class="st5">C4</text></g><g id="shape26-87" transform="translate(148.073,-36.2821)"><title>Sheet.26</title><desc>C5</desc><rect width="12.615" height="67.699" x="0" y="70.345" class="st4"/><text x="4" y="101.19" class="st5">C<tspan x="4" class="st6" dy="1.2em">5</tspan></text></g><g id="shape27-91" transform="translate(166.722,-36.3005)"><title>Sheet.27</title><desc>C6</desc><rect width="34.538" height="67.699" x="0" y="70.345" class="st4"/><text x="10.88" y="107.2" class="st5">C6</text></g></g></svg>