<svg xmlns="http://www.w3.org/2000/svg" xmlns:ev="http://www.w3.org/2001/xml-events" xmlns:xlink="http://www.w3.org/1999/xlink" width="793.701" height="181.417" class="st13" color-interpolation-filters="sRGB" viewBox="0 0 595.276 136.063" xml:space="preserve"><style type="text/css">.st1,.st2{stroke-linecap:round;stroke-linejoin:round;stroke-width:.72}.st1{fill:#fff;stroke:none}.st2{marker-end:url(#mrkr13-8)}.st2,.st3,.st4{stroke:#000}.st3{fill:#000;fill-opacity:1;stroke-opacity:1;stroke-width:.22222222222222}.st4{fill:none;stroke-linecap:round;stroke-linejoin:round;stroke-width:.72}.st5{fill:#000;font-family:Arial;font-size:.833336em}.st6{font-size:1em}.st7{stroke:none;stroke-linecap:round;stroke-linejoin:round;stroke-width:.72}.st7,.st8{fill:none}.st9{marker-end:url(#mrkr12-24);marker-start:url(#mrkr12-22)}.st10,.st9{stroke:#000;stroke-linecap:round;stroke-linejoin:round;stroke-width:.24}.st11{fill:#000;fill-opacity:1;stroke:#000;stroke-opacity:1;stroke-width:.08695652173913}.st12{fill:none;stroke:#000;stroke-dasharray:5.04,3.6;stroke-linecap:round;stroke-linejoin:round;stroke-width:.72}.st13{fill:none;fill-rule:evenodd;font-size:12px;overflow:visible;stroke-linecap:square;stroke-miterlimit:3}</style><defs id="Markers"><g id="lend13"><path d="M 3 1 L 0 0 L 3 -1 L 3 1" style="stroke:none"/></g><marker id="mrkr13-8" class="st3" markerUnits="strokeWidth" orient="auto" overflow="visible" refX="-13.5"><use transform="scale(-4.5,-4.5)" xlink:href="#lend13"/></marker><g id="lend12"><path d="M 3 1 L 0 0 L 3 -1" style="stroke-linecap:round;stroke-linejoin:round;fill:none"/></g><marker id="mrkr12-22" class="st11" markerUnits="strokeWidth" orient="auto" overflow="visible"><use transform="scale(11.5)" xlink:href="#lend12"/></marker><marker id="mrkr12-24" class="st11" markerUnits="strokeWidth" orient="auto" overflow="visible"><use transform="scale(-11.5,-11.5)" xlink:href="#lend12"/></marker></defs><g><title>VBackground-1</title><g id="shape1000-1"><title>Solid.1000</title><rect width="595.276" height="136.063" x="0" y="0" class="st1"/></g></g><g><title>Page-1</title><g id="shape6-3" transform="translate(17.0079,-79.8584)"><title>Sheet.6</title><path d="M0 136.06 L515.41 136.06" class="st2"/></g><g id="shape13-9" transform="translate(34.6824,-79.826)"><title>Sheet.13</title><desc>Scanner primary</desc><rect width="83.037" height="44.735" x="0" y="91.328" class="st4"/><text x="22.9" y="110.7" class="st5">Scanner <tspan x="24.85" class="st6" dy="1.2em">primary</tspan></text></g><g id="shape17-13" transform="translate(506.156,-59.2691)"><title>Sheet.17</title><desc>time</desc><rect width="101.551" height="13.33" x="0" y="122.733" class="st7"/><text x="41.33" y="132.4" class="st5">time</text></g><g id="shape23-16" transform="translate(34.6824,-72.8848)"><title>Duration (horizontal) .12</title><desc>scanInterval</desc><path d="M0 141.12 L0 132.12 L0 141.12 ZM169.72 141.12 L169.72 132.12 L169.72 141.12 Z" class="st8"/><path d="M0 136.62 L169.72 136.62" class="st9"/><path d="M0 141.12 L0 132.12" class="st10"/><path class="st10"/><path d="M169.72 141.12 L169.72 132.12" class="st10"/><path class="st10"/><text x="58.53" y="150.68" class="st5">scanInterval</text></g><g id="shape25-30" transform="translate(159.238,-79.826)"><title>Sheet.25</title><desc>Scanner secondary</desc><rect width="141.163" height="44.735" x="0" y="91.328" class="st4"/><text x="51.96" y="110.7" class="st5">Scanner <tspan x="47.51" class="st6" dy="1.2em">secondary</tspan></text></g><g id="shape28-34" transform="translate(338.897,-79.826)"><title>Sheet.28</title><desc>Scanner secondary</desc><rect width="61.149" height="44.735" x="0" y="91.328" class="st4"/><text x="11.95" y="110.7" class="st5">Scanner <tspan x="7.51" class="st6" dy="1.2em">secondary</tspan></text></g><g id="shape32-38" transform="translate(204.632,-11.3386)"><title>Sheet.32</title><desc>Scanner primary</desc><path d="M0 136.06 L83.04 136.06 L83.04 91.33 L0 91.33 L0 136.06 Z" class="st12"/><text x="22.9" y="110.7" class="st5">Scanner <tspan x="24.85" class="st6" dy="1.2em">primary</tspan></text></g><g id="shape34-42" transform="translate(402.813,-79.826)"><title>Sheet.34</title><desc>Scanner primary</desc><rect width="58.126" height="44.735" x="0" y="91.328" class="st4"/><text x="10.44" y="110.7" class="st5">Scanner <tspan x="12.4" class="st6" dy="1.2em">primary</tspan></text></g><g id="shape55-46" transform="translate(204.398,-72.8848)"><title>Duration (horizontal) .55</title><desc>scanInterval</desc><path d="M0 141.12 L0 132.12 L0 141.12 ZM173.5 141.12 L173.5 132.12 L173.5 141.12 Z" class="st8"/><path d="M0 136.62 L173.5 136.62" class="st9"/><path d="M0 141.12 L0 132.12" class="st10"/><path class="st10"/><path d="M173.5 141.12 L173.5 132.12" class="st10"/><path class="st10"/><text x="60.43" y="150.68" class="st5">scanInterval</text></g><g id="shape57-58" transform="translate(377.902,-53.9917)"><title>Duration (horizontal) .60</title><desc>scanWindow</desc><path d="M0 141.12 L0 132.12 L0 141.12 ZM83.04 141.12 L83.04 132.12 L83.04 141.12 Z" class="st8"/><path d="M0 136.62 L83.04 136.62" class="st9"/><path d="M0 141.12 L0 132.12" class="st10"/><path class="st10"/><path d="M83.04 141.12 L83.04 132.12" class="st10"/><path class="st10"/><text x="13.48" y="150.68" class="st5">scanWindow</text></g><g id="shape58-70" transform="translate(34.6824,-53.9917)"><title>Duration (horizontal) .58</title><desc>scanWindow</desc><path d="M0 141.12 L0 132.12 L0 141.12 ZM83.04 141.12 L83.04 132.12 L83.04 141.12 Z" class="st8"/><path d="M0 136.62 L83.04 136.62" class="st9"/><path d="M0 141.12 L0 132.12" class="st10"/><path class="st10"/><path d="M83.04 141.12 L83.04 132.12" class="st10"/><path class="st10"/><text x="13.48" y="150.68" class="st5">scanWindow</text></g></g></svg>