<svg xmlns="http://www.w3.org/2000/svg" xmlns:ev="http://www.w3.org/2001/xml-events" xmlns:xlink="http://www.w3.org/1999/xlink" width="793.701" height="181.417" class="st12" color-interpolation-filters="sRGB" viewBox="0 0 595.276 136.063" xml:space="preserve"><style type="text/css">.st1,.st2{stroke-linecap:round;stroke-linejoin:round;stroke-width:.72}.st1{fill:#fff;stroke:none}.st2{marker-end:url(#mrkr13-8)}.st2,.st3,.st4{stroke:#000}.st3{fill:#000;fill-opacity:1;stroke-opacity:1;stroke-width:.22222222222222}.st4{fill:none;stroke-linecap:round;stroke-linejoin:round;stroke-width:.72}.st5{fill:#000;font-family:Arial;font-size:.833336em}.st6{font-size:1em}.st7{fill:none}.st8{marker-end:url(#mrkr12-21);marker-start:url(#mrkr12-19)}.st8,.st9{stroke:#000;stroke-linecap:round;stroke-linejoin:round;stroke-width:.24}.st10{fill:#000;fill-opacity:1;stroke:#000;stroke-opacity:1;stroke-width:.08695652173913}.st11{fill:none;stroke:none;stroke-linecap:round;stroke-linejoin:round;stroke-width:.72}.st12{fill:none;fill-rule:evenodd;font-size:12px;overflow:visible;stroke-linecap:square;stroke-miterlimit:3}</style><defs id="Markers"><g id="lend13"><path d="M 3 1 L 0 0 L 3 -1 L 3 1" style="stroke:none"/></g><marker id="mrkr13-8" class="st3" markerUnits="strokeWidth" orient="auto" overflow="visible" refX="-13.5"><use transform="scale(-4.5,-4.5)" xlink:href="#lend13"/></marker><g id="lend12"><path d="M 3 1 L 0 0 L 3 -1" style="stroke-linecap:round;stroke-linejoin:round;fill:none"/></g><marker id="mrkr12-19" class="st10" markerUnits="strokeWidth" orient="auto" overflow="visible"><use transform="scale(11.5)" xlink:href="#lend12"/></marker><marker id="mrkr12-21" class="st10" markerUnits="strokeWidth" orient="auto" overflow="visible"><use transform="scale(-11.5,-11.5)" xlink:href="#lend12"/></marker></defs><g><title>VBackground-1</title><g id="shape1000-1"><title>Solid.1000</title><rect width="595.276" height="136.063" x="0" y="0" class="st1"/></g></g><g><title>Page-1</title><g id="shape25-3" transform="translate(49.6063,-60.3116)"><title>Sheet.25</title><path d="M0 136.06 L453.7 136.06" class="st2"/></g><g id="shape26-9" transform="translate(55.6881,-60.3116)"><title>Sheet.26</title><desc>Scanner primary</desc><rect width="142.737" height="49.528" x="0" y="86.535" class="st4"/><text x="52.75" y="108.3" class="st5">Scanner<tspan x="54.7" class="st6" dy="1.2em">primary</tspan></text></g><g id="shape27-13" transform="translate(56.6929,-52.1542)"><title>Duration (horizontal) .60</title><desc>scanWindow</desc><path d="M0 141.12 L0 132.12 L0 141.12 ZM362.83 141.12 L362.83 132.12 L362.83 141.12 Z" class="st7"/><path d="M0 136.62 L362.83 136.62" class="st8"/><path d="M0 141.12 L0 132.12" class="st9"/><path class="st9"/><path d="M362.83 141.12 L362.83 132.12" class="st9"/><path class="st9"/><text x="154.41" y="150.68" class="st5">scanWindow</text></g><g id="shape28-27" transform="translate(498.182,-53.0871)"><title>Sheet.28</title><desc>time</desc><rect width="74.379" height="14.758" x="0" y="121.304" class="st11"/><text x="27.74" y="131.68" class="st5">time</text></g><g id="shape29-30" transform="translate(55.2217,-24.969)"><title>Duration (horizontal) .12</title><desc>scanInterval</desc><path d="M0 141.12 L0 132.12 L0 141.12 ZM364.87 141.12 L364.87 132.12 L364.87 141.12 Z" class="st7"/><path d="M0 136.62 L364.87 136.62" class="st8"/><path d="M0 141.12 L0 132.12" class="st9"/><path class="st9"/><path d="M364.87 141.12 L364.87 132.12" class="st9"/><path class="st9"/><text x="156.82" y="150.68" class="st5">scan<tspan class="st6">Interval</tspan></text></g><g id="shape30-43" transform="translate(272.126,-60.3449)"><title>Sheet.30</title><desc>Scanner primary</desc><rect width="148.031" height="49.528" x="0" y="86.535" class="st4"/><text x="55.39" y="108.3" class="st5">Scanner<tspan x="57.35" class="st6" dy="1.2em">primary</tspan></text></g><g id="shape32-47" transform="translate(204.52,-60.3689)"><title>Sheet.32</title><desc>Other timing-event</desc><rect width="62.936" height="49.528" x="0" y="86.535" class="st4"/><text x="18.96" y="108.3" class="st5">Other <tspan x="4.23" class="st6" dy="1.2em">timing</tspan>-event</text></g></g></svg>