<svg xmlns="http://www.w3.org/2000/svg" xmlns:ev="http://www.w3.org/2001/xml-events" xmlns:xlink="http://www.w3.org/1999/xlink" width="792.38" height="183.233" class="st7" color-interpolation-filters="sRGB" viewBox="0 0 594.285 137.425" xml:space="preserve"><style type="text/css">.st1,.st2{stroke-linecap:round;stroke-linejoin:round;stroke-width:.72}.st1{fill:#fff;stroke:none}.st2{marker-end:url(#mrkr13-8)}.st2,.st3,.st4{stroke:#000}.st3{fill:#000;fill-opacity:1;stroke-opacity:1;stroke-width:.22222222222222}.st4{fill:none;stroke-linecap:round;stroke-linejoin:round;stroke-width:.72}.st5{fill:#000;font-family:Arial;font-size:.833336em}.st6{fill:none;stroke:#000;stroke-dasharray:5.04,3.6;stroke-linecap:round;stroke-linejoin:round;stroke-width:.72}.st7{fill:none;fill-rule:evenodd;font-size:12px;overflow:visible;stroke-linecap:square;stroke-miterlimit:3}</style><defs id="Markers"><g id="lend13"><path d="M 3 1 L 0 0 L 3 -1 L 3 1" style="stroke:none"/></g><marker id="mrkr13-8" class="st3" markerUnits="strokeWidth" orient="auto" overflow="visible" refX="-13.5"><use transform="scale(-4.5,-4.5)" xlink:href="#lend13"/></marker></defs><g><title>VBackground-1</title><g id="shape1000-1"><title>Solid.1000</title><rect width="594.285" height="137.425" x="0" y="0" class="st1"/></g></g><g><title>Page-1</title><g id="shape6-3" transform="translate(29.1357,-65.3684)"><title>Sheet.6</title><path d="M0 137.43 L528.07 137.43" class="st2"/></g><g id="shape7-9" transform="translate(48.3791,-65.3684)"><title>Sheet.7</title><desc>Sync 0</desc><rect width="50.834" height="47.238" x="0" y="90.187" class="st4"/><text x="10.13" y="116.81" class="st5">Sync 0</text></g><g id="shape37-12" transform="translate(62.0626,-11.814)"><title>Sheet.37</title><desc>Sync 1</desc><path d="M0 137.43 L58.41 137.43 L58.41 90.19 L0 90.19 L0 137.43 Z" class="st6"/><text x="13.92" y="116.81" class="st5">Sync 1</text></g><g id="shape38-15" transform="translate(187.182,-65.4803)"><title>Sheet.38</title><desc>Sync 0</desc><path d="M0 137.43 L50.83 137.43 L50.83 90.19 L0 90.19 L0 137.43 Z" class="st6"/><text x="10.13" y="116.81" class="st5">Sync 0</text></g><g id="shape39-18" transform="translate(196.708,-11.814)"><title>Sheet.39</title><desc>Sync 1</desc><rect width="58.41" height="47.238" x="0" y="90.187" class="st4"/><text x="13.92" y="116.81" class="st5">Sync 1</text></g><g id="shape40-21" transform="translate(325.984,-65.4643)"><title>Sheet.40</title><desc>Sync 0</desc><rect width="50.834" height="47.238" x="0" y="90.187" class="st4"/><text x="10.13" y="116.81" class="st5">Sync 0</text></g><g id="shape41-24" transform="translate(339.668,-11.9099)"><title>Sheet.41</title><desc>Sync 1</desc><path d="M0 137.43 L58.41 137.43 L58.41 90.19 L0 90.19 L0 137.43 Z" class="st6"/><text x="13.92" y="116.81" class="st5">Sync 1</text></g><g id="shape42-27" transform="translate(464.787,-65.5763)"><title>Sheet.42</title><desc>Sync 0</desc><path d="M0 137.43 L50.83 137.43 L50.83 90.19 L0 90.19 L0 137.43 Z" class="st6"/><text x="10.13" y="116.81" class="st5">Sync 0</text></g><g id="shape43-30" transform="translate(474.313,-11.9099)"><title>Sheet.43</title><desc>Sync 1</desc><rect width="58.41" height="47.238" x="0" y="90.187" class="st4"/><text x="13.92" y="116.81" class="st5">Sync 1</text></g></g></svg>