<svg xmlns="http://www.w3.org/2000/svg" xmlns:ev="http://www.w3.org/2001/xml-events" xmlns:xlink="http://www.w3.org/1999/xlink" width="612.515" height="169.457" class="st11" color-interpolation-filters="sRGB" viewBox="0 0 459.386 127.093" xml:space="preserve"><style type="text/css">.st1,.st2{stroke-linecap:round;stroke-linejoin:round;stroke-width:.72}.st1{fill:#fff;stroke:none}.st2{marker-end:url(#mrkr13-8)}.st2,.st3,.st4{stroke:#000}.st3{fill:#000;fill-opacity:1;stroke-opacity:1;stroke-width:.22222222222222}.st4{fill:none;stroke-linecap:round;stroke-linejoin:round;stroke-width:.72}.st5{fill:#000;font-family:Arial;font-size:.833336em}.st6{stroke:none;stroke-linecap:round;stroke-linejoin:round;stroke-width:.72}.st6,.st7{fill:none}.st8{marker-end:url(#mrkr12-23);marker-start:url(#mrkr12-21)}.st8,.st9{stroke:#000;stroke-linecap:round;stroke-linejoin:round;stroke-width:.24}.st10{fill:#000;fill-opacity:1;stroke:#000;stroke-opacity:1;stroke-width:.08695652173913}.st11{fill:none;fill-rule:evenodd;font-size:12px;overflow:visible;stroke-linecap:square;stroke-miterlimit:3}</style><defs id="Markers"><g id="lend13"><path d="M 3 1 L 0 0 L 3 -1 L 3 1" style="stroke:none"/></g><marker id="mrkr13-8" class="st3" markerUnits="strokeWidth" orient="auto" overflow="visible" refX="-13.5"><use transform="scale(-4.5,-4.5)" xlink:href="#lend13"/></marker><g id="lend12"><path d="M 3 1 L 0 0 L 3 -1" style="stroke-linecap:round;stroke-linejoin:round;fill:none"/></g><marker id="mrkr12-21" class="st10" markerUnits="strokeWidth" orient="auto" overflow="visible"><use transform="scale(11.5)" xlink:href="#lend12"/></marker><marker id="mrkr12-23" class="st10" markerUnits="strokeWidth" orient="auto" overflow="visible"><use transform="scale(-11.5,-11.5)" xlink:href="#lend12"/></marker></defs><g><title>VBackground-1</title><g id="shape1000-1"><title>Solid.1000</title><rect width="459.386" height="127.093" x="0" y="0" class="st1"/></g></g><g><title>Page-1</title><g id="shape25-3" transform="translate(28.2458,-28.2458)"><title>Sheet.25</title><path d="M0 127.09 L387.13 127.09" class="st2"/></g><g id="shape26-9" transform="translate(34.3276,-28.2458)"><title>Sheet.26</title><desc>First packet</desc><rect width="64.885" height="49.528" x="0" y="77.565" class="st4"/><text x="6.6" y="105.33" class="st5">First packet</text></g><g id="shape28-12" transform="translate(403.937,-20.6745)"><title>Sheet.28</title><desc>time</desc><rect width="74.379" height="14.758" x="0" y="112.334" class="st6"/><text x="27.74" y="122.71" class="st5">time</text></g><g id="shape29-15" transform="translate(33.8612,-92.2847)"><title>Duration (horizontal) .12</title><desc>Interval</desc><path d="M0 132.15 L0 123.15 L0 132.15 ZM348.72 132.15 L348.72 123.15 L348.72 132.15 Z" class="st7"/><path d="M0 127.65 L348.72 127.65" class="st8"/><path d="M0 132.15 L0 123.15" class="st9"/><path class="st9"/><path d="M348.72 132.15 L348.72 123.15" class="st9"/><path class="st9"/><text x="157.85" y="123.29" class="st5">Interval</text></g><g id="shape30-29" transform="translate(250.765,-28.2791)"><title>Sheet.30</title><desc>Last packet</desc><rect width="75.219" height="49.528" x="0" y="77.565" class="st4"/><text x="12.04" y="105.33" class="st5">Last packet</text></g><g id="shape32-32" transform="translate(106.199,-28.225)"><title>Sheet.32</title><desc>Other timing-event</desc><rect width="137.48" height="49.528" x="0" y="77.565" class="st4"/><text x="27.61" y="105.33" class="st5">Other timing-event</text></g></g></svg>