<svg xmlns="http://www.w3.org/2000/svg" xmlns:ev="http://www.w3.org/2001/xml-events" xmlns:xlink="http://www.w3.org/1999/xlink" width="550.698" height="786.54" class="st12" color-interpolation-filters="sRGB" viewBox="0 0 413.024 589.905" xml:space="preserve"><style type="text/css">.st1{fill:none;stroke:#0077c8;stroke-width:1}.st2{fill:#0077c8;font-family:Arial;font-size:1.16666em}.st3,.st4{fill:#0033a0;stroke:none;stroke-width:1}.st4{fill:none}.st5{fill:#fff;font-family:Arial;font-size:1.00001em}.st6{font-size:1em}.st7{fill:#0077c8;stroke:none}.st7,.st8,.st9{stroke-width:1}.st8{fill:#00a9ce;stroke:none}.st9{marker-start:url(#mrkr4-96);stroke-linecap:butt}.st10,.st11,.st9{stroke:#333f48}.st10{fill:#333f48;fill-opacity:1;stroke-opacity:1;stroke-width:.28409090909091}.st11{marker-end:url(#mrkr4-102);stroke-linecap:butt;stroke-width:1}.st12{fill:none;fill-rule:evenodd;font-size:12px;overflow:visible;stroke-linecap:square;stroke-miterlimit:3}</style><defs id="Markers"><g id="lend4"><path d="M 2 1 L 0 0 L 2 -1 L 2 1" style="stroke:none"/></g><marker id="mrkr4-96" class="st10" markerUnits="strokeWidth" orient="auto" overflow="visible" refX="6.68"><use transform="scale(3.52)" xlink:href="#lend4"/></marker><marker id="mrkr4-102" class="st10" markerUnits="strokeWidth" orient="auto" overflow="visible" refX="-7.04"><use transform="scale(-3.52,-3.52)" xlink:href="#lend4"/></marker></defs><g><title>Page-1</title><g id="shape64-1" transform="translate(1,-301.297)"><title>Nordic Light Grey</title><desc>Local side</desc><rect width="411.024" height="287.608" x="0" y="302.297" class="st1"/><text x="4" y="318.9" class="st2">Local side</text></g><g id="shape65-4" transform="translate(1,-1)"><title>Nordic Middle Grey</title><desc>Remote side</desc><rect width="411.024" height="287.608" x="0" y="302.297" class="st1"/><text x="4" y="581.71" class="st2">Remote side</text></g><g id="group89-7" transform="translate(131.793,-24.0291)"><title>Sheet.89</title><g id="shape87-8"><title>Nordic Blue.87</title><rect width="149.438" height="54.64" x="0" y="535.265" class="st3"/></g><g id="shape88-10" transform="translate(26.6858,-9.04664)"><title>Sheet.88</title><desc>bt_start_adv(…) is executed</desc><rect width="96.066" height="36.547" x="0" y="553.359" class="st4"/><text x="5.02" y="568.03" class="st5">bt_start_adv(…) <tspan x="17.68" class="st6" dy="1.2em">is executed</tspan></text></g></g><g id="group90-14" transform="translate(49.5067,-499.142)"><title>Sheet.90</title><g id="shape66-15"><title>Nordic Blue</title><rect width="314.01" height="54.64" x="0" y="535.265" class="st7"/></g><g id="shape67-17" transform="translate(0,-8.61842)"><title>Sheet.67</title><desc>bt_start_adv(…) is called from the user code</desc><rect width="149.438" height="36.547" x="0" y="553.359" class="st4"/><text x="8.36" y="568.03" class="st5">bt_start_adv(…) is called <tspan x="24.69" class="st6" dy="1.2em">from the user code</tspan></text></g><g id="shape68-21" transform="translate(164.573,-8.61842)"><title>Sheet.68</title><desc>Result is obtained by the user code</desc><rect width="149.438" height="36.547" x="0" y="553.359" class="st4"/><text x="9.01" y="568.03" class="st5">Result is obtained by the <tspan x="48.37" class="st6" dy="1.2em">user code</tspan></text></g></g><g id="group91-25" transform="translate(49.5067,-420.469)"><title>Sheet.91</title><g id="shape69-26"><title>Nordic Blue.69</title><rect width="314.01" height="54.64" x="0" y="535.265" class="st8"/></g><g id="shape70-28" transform="translate(0,-8.61842)"><title>Sheet.70</title><desc>bt_start_adv(…) serializes all the parameters</desc><rect width="149.438" height="36.547" x="0" y="553.359" class="st4"/><text x="5.03" y="568.03" class="st5">bt_start_adv(…) serializes <tspan x="26.69" class="st6" dy="1.2em">all the parameters</tspan></text></g><g id="shape71-32" transform="translate(164.573,-8.61842)"><title>Sheet.71</title><desc>bt_start_adv(…) returns the result</desc><rect width="149.438" height="36.547" x="0" y="553.359" class="st4"/><text x="11.36" y="568.03" class="st5">bt_start_adv(…) returns <tspan x="50.04" class="st6" dy="1.2em">the result</tspan></text></g></g><g id="group98-36" transform="translate(49.5067,-102.701)"><title>Sheet.98</title><g id="shape84-37"><title>Nordic Blue.84</title><rect width="314.01" height="54.64" x="0" y="535.265" class="st8"/></g><g id="shape85-39" transform="translate(0,-9.04664)"><title>Sheet.85</title><desc>bt_start_adv_handler(…) decodes the parameters</desc><rect width="149.438" height="36.547" x="0" y="553.359" class="st4"/><text x="8.35" y="568.03" class="st5">bt_start_adv_handler(…) <tspan x="10.01" class="st6" dy="1.2em">decodes the parameters</tspan></text></g><g id="shape86-43" transform="translate(164.573,-9.04664)"><title>Sheet.86</title><desc>bt_start_adv_handler(…) encodes the result</desc><rect width="149.438" height="36.547" x="0" y="553.359" class="st4"/><text x="8.35" y="568.03" class="st5">bt_start_adv_handler(…) <tspan x="25.69" class="st6" dy="1.2em">encodes the result</tspan></text></g></g><g id="group99-47" transform="translate(14.0736,-340.771)"><title>Sheet.99</title><g id="group92-48" transform="translate(0,-1.02634)"><title>Sheet.92</title><g id="shape72-49"><title>Nordic Blue.72</title><rect width="186.451" height="54.64" x="0" y="535.265" class="st8"/></g><g id="shape73-51" transform="translate(18.5068,-9.04664)"><title>Sheet.73</title><desc>nrf_rpc_cmd(…)</desc><rect width="149.438" height="36.547" x="0" y="553.359" class="st4"/><text x="31.38" y="575.23" class="st5">nrf_rpc_cmd(…)</text></g></g><g id="group97-54" transform="translate(198.425,1.13687E-13)"><title>Sheet.97</title><g id="shape74-55"><title>Nordic Blue.74</title><rect width="186.451" height="54.64" x="0" y="535.265" class="st8"/></g><g id="shape75-57" transform="translate(18.5068,-9.04664)"><title>Sheet.75</title><desc>bt_start_adv(…) response handler decodes the result</desc><rect width="149.438" height="36.547" x="0" y="553.359" class="st4"/><text x="5.35" y="568.03" class="st5">bt_start_adv(…) response <tspan x="4" class="st6" dy="1.2em">handler decodes the result</tspan></text></g></g></g><g id="group100-61" transform="translate(14.0736,-261.072)"><title>Sheet.100</title><g id="group93-62" transform="translate(0,-1.02634)"><title>Sheet.93</title><g id="shape76-63"><title>Nordic Blue.76</title><rect width="186.451" height="54.64" x="0" y="535.265" class="st8"/></g><g id="shape77-65" transform="translate(13.8964,-9.04664)"><title>Sheet.77</title><desc>nRF RPC transport passes data to the remote side</desc><rect width="158.659" height="36.547" x="0" y="553.359" class="st4"/><text x="7.64" y="568.03" class="st5">nRF RPC transport passes <tspan x="17.96" class="st6" dy="1.2em">data to the remote side</tspan></text></g></g><g id="group96-69" transform="translate(198.425,1.13687E-13)"><title>Sheet.96</title><g id="shape78-70"><title>Nordic Blue.78</title><rect width="186.451" height="54.64" x="0" y="535.265" class="st8"/></g><g id="shape79-72" transform="translate(13.8964,-9.04664)"><title>Sheet.79</title><desc>nRF RPC transport passes result to the local side</desc><rect width="158.659" height="36.547" x="0" y="553.359" class="st4"/><text x="7.64" y="568.03" class="st5">nRF RPC transport passes <tspan x="21.3" class="st6" dy="1.2em">result to the local side</tspan></text></g></g></g><g id="group101-76" transform="translate(14.0736,-181.374)"><title>Sheet.101</title><g id="group94-77" transform="translate(0,-1.02634)"><title>Sheet.94</title><g id="shape80-78"><title>Nordic Blue.80</title><rect width="186.451" height="54.64" x="0" y="535.265" class="st8"/></g><g id="shape81-80" transform="translate(18.5068,-9.04664)"><title>Sheet.81</title><desc>nRF RPC dispatcher searches for the associated handler</desc><rect width="149.438" height="36.547" x="0" y="553.359" class="st4"/><text x="19.7" y="560.83" class="st5">nRF RPC dispatcher <tspan x="31.7" class="st6" dy="1.2em">searches for the </tspan><tspan x="24.35" class="st6" dy="1.2em">associated handler</tspan></text></g></g><g id="group95-85" transform="translate(198.425,1.13687E-13)"><title>Sheet.95</title><g id="shape82-86"><title>Nordic Blue.82</title><rect width="186.451" height="54.64" x="0" y="535.265" class="st8"/></g><g id="shape83-88" transform="translate(18.5068,-9.04664)"><title>Sheet.83</title><desc>nrf_rpc_rsp(…)</desc><rect width="149.438" height="36.547" x="0" y="553.359" class="st4"/><text x="34.38" y="575.23" class="st5">nrf_rpc_rsp(…)</text></g></g></g><g id="shape102-91" transform="translate(282.197,-499.864)"><title>Dynamic connector</title><path d="M7.09 596.59 L7.09 596.95 L7.09 614.66" class="st9"/></g><g id="shape103-97" transform="translate(116.937,-499.142)"><title>Dynamic connector.103</title><path d="M7.09 589.91 L7.09 606.9" class="st11"/></g><g id="shape104-103" transform="translate(100.213,-420.469)"><title>Dynamic connector.104</title><path d="M7.09 589.91 L7.09 606.9" class="st11"/></g><g id="shape105-108" transform="translate(298.638,-420.469)"><title>Dynamic connector.105</title><path d="M7.09 596.59 L7.09 596.95 L7.09 614.96" class="st9"/></g><g id="shape106-113" transform="translate(298.638,-340.771)"><title>Dynamic connector.106</title><path d="M7.09 596.59 L7.09 596.95 L7.09 614.96" class="st9"/></g><g id="shape107-118" transform="translate(298.638,-261.072)"><title>Dynamic connector.107</title><path d="M7.09 596.59 L7.09 596.95 L7.09 614.96" class="st9"/></g><g id="shape108-123" transform="translate(282.764,-181.374)"><title>Dynamic connector.108</title><path d="M7.09 596.59 L7.09 596.95 L7.09 613.94" class="st9"/></g><g id="shape109-128" transform="translate(100.213,-341.797)"><title>Dynamic connector.109</title><path d="M7.09 589.91 L7.09 607.92" class="st11"/></g><g id="shape110-133" transform="translate(100.213,-262.099)"><title>Dynamic connector.110</title><path d="M7.09 589.91 L7.09 607.92" class="st11"/></g><g id="shape111-138" transform="translate(120.622,-182.4)"><title>Dynamic connector.111</title><path d="M7.09 589.91 L7.09 607.92" class="st11"/></g><g id="shape112-143" transform="translate(241.945,-102.701)"><title>Dynamic connector.112</title><path d="M7.09 596.59 L7.09 596.95 L7.09 613.94" class="st9"/></g><g id="shape113-148" transform="translate(162.008,-103.728)"><title>Dynamic connector.113</title><path d="M7.09 589.91 L7.09 607.92" class="st11"/></g></g></svg>