<svg xmlns="http://www.w3.org/2000/svg" xmlns:ev="http://www.w3.org/2001/xml-events" xmlns:xlink="http://www.w3.org/1999/xlink" width="550.698" height="786.54" class="st12" color-interpolation-filters="sRGB" viewBox="0 0 413.024 589.905" xml:space="preserve"><style type="text/css">.st1{fill:none;stroke:#0077c8;stroke-width:1}.st2{fill:#0077c8;font-family:Arial;font-size:1.16666em}.st3,.st4{fill:#0033a0;stroke:none;stroke-width:1}.st4{fill:none}.st5{fill:#fff;font-family:Arial;font-size:1.00001em}.st6{font-size:1em}.st7{fill:#0077c8;stroke:none}.st7,.st8,.st9{stroke-width:1}.st8{fill:#00a9ce;stroke:none}.st9{marker-start:url(#mrkr4-59);stroke-linecap:butt}.st10,.st11,.st9{stroke:#333f48}.st10{fill:#333f48;fill-opacity:1;stroke-opacity:1;stroke-width:.28409090909091}.st11{marker-end:url(#mrkr4-65);stroke-linecap:butt;stroke-width:1}.st12{fill:none;fill-rule:evenodd;font-size:12px;overflow:visible;stroke-linecap:square;stroke-miterlimit:3}</style><defs id="Markers"><g id="lend4"><path d="M 2 1 L 0 0 L 2 -1 L 2 1" style="stroke:none"/></g><marker id="mrkr4-59" class="st10" markerUnits="strokeWidth" orient="auto" overflow="visible" refX="6.68"><use transform="scale(3.52)" xlink:href="#lend4"/></marker><marker id="mrkr4-65" class="st10" markerUnits="strokeWidth" orient="auto" overflow="visible" refX="-7.04"><use transform="scale(-3.52,-3.52)" xlink:href="#lend4"/></marker></defs><g><title>Page-1</title><g id="shape64-1" transform="translate(1,-301.297)"><title>Nordic Light Grey</title><desc>Local side</desc><rect width="411.024" height="287.608" x="0" y="302.297" class="st1"/><text x="4" y="318.9" class="st2">Local side</text></g><g id="shape65-4" transform="translate(1,-1)"><title>Nordic Middle Grey</title><desc>Remote side</desc><rect width="411.024" height="287.608" x="0" y="302.297" class="st1"/><text x="4" y="581.71" class="st2">Remote side</text></g><g id="group89-7" transform="translate(33.9569,-38.2023)"><title>Sheet.89</title><g id="shape87-8"><title>Nordic Blue.87</title><rect width="186.451" height="54.64" x="0" y="535.265" class="st3"/></g><g id="shape88-10" transform="translate(2.23821E-13,-9.04664)"><title>Sheet.88</title><desc>bt_gatt_complete_func(…) is executed</desc><rect width="186.451" height="36.547" x="0" y="553.359" class="st4"/><text x="22.52" y="568.03" class="st5">bt_gatt_complete_func(…) <tspan x="62.87" class="st6" dy="1.2em">is executed</tspan></text></g></g><g id="group90-14" transform="translate(69.39,-499.142)"><title>Sheet.90</title><g id="shape66-15"><title>Nordic Blue</title><rect width="314.01" height="54.64" x="0" y="535.265" class="st7"/></g><g id="shape67-17" transform="translate(7.99361E-14,-8.61842)"><title>Sheet.67</title><desc>bt_gatt_complete_func(…) is called from the user code</desc><rect width="164.573" height="36.547" x="0" y="553.359" class="st4"/><text x="5.58" y="568.03" class="st5">bt_gatt_complete_func(…) is <tspan x="14.92" class="st6" dy="1.2em">called from the user code</tspan></text></g><g id="shape68-21" transform="translate(164.573,-8.61842)"><title>Sheet.68</title><desc>User code continues execution</desc><rect width="149.438" height="36.547" x="0" y="553.359" class="st4"/><text x="20.02" y="568.03" class="st5">User code continues <tspan x="49.03" class="st6" dy="1.2em">execution</tspan></text></g></g><g id="group91-25" transform="translate(69.39,-420.469)"><title>Sheet.91</title><g id="shape69-26"><title>Nordic Blue.69</title><rect width="314.01" height="54.64" x="0" y="535.265" class="st8"/></g><g id="shape70-28" transform="translate(7.99361E-14,-8.61842)"><title>Sheet.70</title><desc>bt_gatt_complete_func(…) serializes all the parameters</desc><rect width="164.573" height="36.547" x="0" y="553.359" class="st4"/><text x="11.58" y="568.03" class="st5">bt_gatt_complete_func(…) <tspan x="7.59" class="st6" dy="1.2em">serializes all the parameters</tspan></text></g><g id="shape71-32" transform="translate(164.573,-8.61842)"><title>Sheet.71</title><desc>bt_gatt_complete_func(…) returns the no result</desc><rect width="149.438" height="36.547" x="0" y="553.359" class="st4"/><text x="4.01" y="568.03" class="st5">bt_gatt_complete_func(…) <tspan x="21.36" class="st6" dy="1.2em">returns the no result</tspan></text></g></g><g id="shape85-36" transform="translate(69.39,-111.748)"><title>Sheet.85</title><desc>bt_start_adv_handler(…) decodes the parameters</desc><rect width="149.438" height="36.547" x="0" y="553.359" class="st4"/><text x="8.35" y="568.03" class="st5">bt_start_adv_handler(…) <tspan x="10.01" class="st6" dy="1.2em">decodes the parameters</tspan></text></g><g id="group93-40" transform="translate(33.9569,-262.099)"><title>Sheet.93</title><g id="shape76-41"><title>Nordic Blue.76</title><rect width="186.451" height="54.64" x="0" y="535.265" class="st8"/></g><g id="shape77-43" transform="translate(13.8964,-9.04664)"><title>Sheet.77</title><desc>nRF RPC transport passes data to the remote side</desc><rect width="158.659" height="36.547" x="0" y="553.359" class="st4"/><text x="7.64" y="568.03" class="st5">nRF RPC transport passes <tspan x="17.96" class="st6" dy="1.2em">data to the remote side</tspan></text></g></g><g id="group94-47" transform="translate(33.9569,-187.466)"><title>Sheet.94</title><g id="shape80-48"><title>Nordic Blue.80</title><rect width="186.451" height="54.64" x="0" y="535.265" class="st8"/></g><g id="shape81-50" transform="translate(0,-9.04664)"><title>Sheet.81</title><desc>nRF RPC dispatcher searches for the associated handler</desc><rect width="186.451" height="36.547" x="0" y="553.359" class="st4"/><text x="12.19" y="568.03" class="st5">nRF RPC dispatcher searches <tspan x="24.18" class="st6" dy="1.2em">for the associated handler</tspan></text></g></g><g id="shape102-54" transform="translate(302.08,-499.864)"><title>Dynamic connector</title><path d="M7.09 596.59 L7.09 596.95 L7.09 614.66" class="st9"/></g><g id="shape103-60" transform="translate(136.82,-499.142)"><title>Dynamic connector.103</title><path d="M7.09 589.91 L7.09 606.9" class="st11"/></g><g id="shape104-66" transform="translate(120.096,-420.469)"><title>Dynamic connector.104</title><path d="M7.09 589.91 L7.09 606.9" class="st11"/></g><g id="shape105-71" transform="translate(318.521,-420.469)"><title>Dynamic connector.105</title><path d="M7.09 596.59 L7.09 596.95 L7.09 614.96" class="st9"/></g><g id="shape109-76" transform="translate(120.096,-341.797)"><title>Dynamic connector.109</title><path d="M7.09 589.91 L7.09 607.92" class="st11"/></g><g id="shape110-81" transform="translate(120.096,-262.099)"><title>Dynamic connector.110</title><path d="M7.09 589.91 L7.09 602.86" class="st11"/></g><g id="shape113-86" transform="translate(120.096,-112.834)"><title>Dynamic connector.113</title><path d="M7.09 589.91 L7.09 602.86" class="st11"/></g><g id="group114-91" transform="translate(69.39,-340.771)"><title>Sheet.114</title><g id="shape115-92"><title>Nordic Blue.69</title><rect width="314.01" height="54.64" x="0" y="535.265" class="st8"/></g><g id="shape116-94" transform="translate(0,-8.61842)"><title>Sheet.116</title><desc>nrf_rpc_evt(…) sends the event...</desc><rect width="149.438" height="36.547" x="0" y="553.359" class="st4"/><text x="34.71" y="568.03" class="st5">nrf_rpc_evt(…) <tspan x="27.35" class="st6" dy="1.2em">sends the event...</tspan></text></g><g id="shape117-98" transform="translate(164.573,-8.61842)"><title>Sheet.117</title><desc>...and returns without waiting</desc><rect width="149.438" height="36.547" x="0" y="553.359" class="st4"/><text x="18.69" y="568.03" class="st5">...and returns without <tspan x="56.04" class="st6" dy="1.2em">waiting</tspan></text></g></g><g id="shape121-102" transform="translate(120.096,-187.466)"><title>Dynamic connector.121</title><path d="M7.09 589.91 L7.09 602.86" class="st11"/></g><g id="group122-107" transform="translate(33.9569,-112.834)"><title>Sheet.122</title><g id="shape119-108"><title>Nordic Blue.80</title><rect width="186.451" height="54.64" x="0" y="535.265" class="st8"/></g><g id="shape120-110" transform="translate(6.39488E-14,-9.04664)"><title>Sheet.120</title><desc>bt_gatt_complete_func_handler(…) decodes the parameters</desc><rect width="186.451" height="36.547" x="0" y="553.359" class="st4"/><text x="7.16" y="568.03" class="st5">bt_gatt_complete_func_handler(<tspan x="18.85" class="st6" dy="1.2em">…) </tspan>decodes the parameters</text></g></g></g></svg>