<svg xmlns="http://www.w3.org/2000/svg" xmlns:ev="http://www.w3.org/2001/xml-events" xmlns:xlink="http://www.w3.org/1999/xlink" width="696.777" height="500.889" class="st14" color-interpolation-filters="sRGB" viewBox="0 0 522.583 375.667" xml:space="preserve"><style type="text/css">.st1{fill:#00a9ce;stroke:none;stroke-width:1}.st2{fill:#fff;font-family:Calibri;font-size:1.16666em}.st3{fill:#0077c8;stroke:none;stroke-width:1}.st4{fill:#fff;font-family:Calibri;font-size:1.00001em}.st5{font-size:1em}.st6,.st7{fill:none;stroke-width:1}.st6{stroke:#000;stroke-dasharray:7,5}.st7{stroke:none}.st8{fill:#000;font-family:Calibri;font-size:1.16666em}.st10,.st9{stroke-width:1}.st9{fill:#0033a0;stroke:none}.st10{marker-end:url(#mrkr13-49);marker-start:url(#mrkr13-47);stroke:#000;stroke-linecap:butt}.st11{fill:#000;fill-opacity:1;stroke:#000;stroke-opacity:1;stroke-width:.28409090909091}.st12{fill:#000;font-family:Calibri;font-size:1.00001em}.st13{fill:#768692;stroke:none;stroke-linecap:round;stroke-linejoin:round;stroke-width:.75}.st14{fill:none;fill-rule:evenodd;font-size:12px;overflow:visible;stroke-linecap:square;stroke-miterlimit:3}</style><defs id="Markers"><g id="lend13"><path d="M 3 1 L 0 0 L 3 -1 L 3 1" style="stroke:none"/></g><marker id="mrkr13-47" class="st11" markerUnits="strokeWidth" orient="auto" overflow="visible" refX="10.2"><use transform="scale(3.52)" xlink:href="#lend13"/></marker><marker id="mrkr13-49" class="st11" markerUnits="strokeWidth" orient="auto" overflow="visible" refX="-10.56"><use transform="scale(-3.52,-3.52)" xlink:href="#lend13"/></marker></defs><g><title>Page-1</title><g id="shape1267-1" transform="translate(1,-279.562)"><title>Nordic Blue</title><desc>Application</desc><rect width="520.583" height="95.104" x="0" y="280.562" class="st1"/><text x="228.04" y="332.31" class="st2">Application</text></g><g id="shape1268-4" transform="translate(1,-46.8398)"><title>Nordic Blue.1268</title><rect width="106.654" height="280.278" x="0" y="95.389" class="st1"/></g><g id="shape1269-6" transform="translate(98.6535,-46.8398)"><title>Nordic Blue.1269</title><rect width="162.638" height="24.497" x="0" y="351.17" class="st1"/></g><g id="group1291-8" transform="translate(124.057,-112.98)"><title>Sheet.1291</title><g id="group1288-9" transform="translate(8.2383,-5.98577)"><title>Sheet.1288</title><g id="group1284-10"><title>Sheet.1284</title><g id="shape1282-11" transform="translate(1.59872E-14,-52.6252)"><title>Nordic Blue</title><desc>SoC API</desc><rect width="77.912" height="42.098" x="0" y="333.569" class="st3"/><text x="20.4" y="358.22" class="st4">SoC API</text></g><g id="shape1283-14"><title>Nordic Blue.1283</title><rect width="49.608" height="58.815" x="0" y="316.851" class="st3"/></g></g><g id="shape1285-16" transform="translate(83.2207,-52.6252)"><title>Nordic Blue.1285</title><desc>Multiprotocol API</desc><rect width="83.018" height="42.098" x="0" y="333.569" class="st3"/><text x="7.8" y="351.02" class="st4">Multiprotocol <tspan x="33.43" class="st5" dy="1.2em">API</tspan></text></g><g id="shape1287-20" transform="translate(55.8885,1.13687E-13)"><title>Nordic Blue</title><desc>Radio scheduler</desc><rect width="110.249" height="46.2" x="0" y="329.466" class="st3"/><text x="16.16" y="356.17" class="st4">Radio scheduler</text></g></g><g id="shape1289-23"><title>Nordic Blue</title><path d="M0 375.67 L182.7 375.67 L182.7 246.28 L0 246.28 L0 375.67 Z" class="st6"/></g><g id="shape1290-25" transform="translate(18.5021,-106.664)"><title>Sheet.1290</title><desc>MPSL</desc><rect width="141.332" height="16.97" x="0" y="358.697" class="st7"/><text x="54.91" y="371.38" class="st8">MPSL</text></g></g><g id="group1294-28" transform="translate(344.765,-112.626)"><title>Sheet.1294</title></g><g id="group1302-29" transform="translate(344.765,-112.98)"><title>Sheet.1302</title><g id="shape1297-30" transform="translate(9.34126,-7.1176)"><title>Nordic Blue.1285</title><desc>Stack 1</desc><rect width="62.077" height="94.723" x="0" y="280.943" class="st9"/><text x="13.74" y="331.91" class="st4">Stack 1</text></g><g id="shape1299-33"><title>Nordic Blue</title><path d="M0 375.67 L174.29 375.67 L174.29 246.28 L0 246.28 L0 375.67 Z" class="st6"/></g><g id="shape1300-35" transform="translate(18.9834,-106.664)"><title>Sheet.1300</title><desc>Protocol stacks</desc><rect width="145.008" height="16.97" x="0" y="358.697" class="st7"/><text x="29.56" y="371.38" class="st8">Protocol stacks</text></g><g id="shape1301-38" transform="translate(104.338,-7.1176)"><title>Nordic Blue.1301</title><desc>Stack N</desc><rect width="62.077" height="94.723" x="0" y="280.943" class="st9"/><text x="12.9" y="331.91" class="st4">Stack N</text></g></g><g id="shape1303-41" transform="translate(192.764,-279.562)"><title>Dynamic connector</title><path d="M7.09 385.87 L7.09 386.23 L7.09 402.3" class="st10"/></g><g id="shape1304-50" transform="translate(119.348,-83.5487)"><title>Sheet.1304</title><desc>IRQ forwarding</desc><rect width="83.794" height="16.97" x="0" y="358.697" class="st7"/><text x="4.89" y="370.78" class="st12">IRQ forwarding</text></g><g id="shape1306-53" transform="translate(230.933,-112.98)"><title>Dynamic connector.1306</title><path d="M7.09 385.87 L7.09 386.23 L7.09 407.25" class="st10"/></g><g id="shape1307-60" transform="translate(344.765,-170.588)"><title>Dynamic connector.1307</title><path d="M-10.2 368.58 L-10.56 368.58 L-27.45 368.58" class="st10"/></g><g id="shape1308-67" transform="translate(428.89,-279.562)"><title>Dynamic connector.1308</title><path d="M7.09 385.87 L7.09 386.23 L7.09 402.3" class="st10"/></g><g id="shape1309-74" transform="translate(433.709,-112.98)"><title>Dynamic connector.1309</title><path d="M7.09 385.87 L7.09 386.23 L7.09 442.88" class="st10"/></g><g id="shape1310-81" transform="translate(1,-0.375)"><title>path4942</title><desc>Hardware peripherals</desc><path d="M0 340.83 L0 375.67 L520.43 375.67 L520.43 340.83 L0 340.83 Z" class="st13"/><text x="198.33" y="362.45" class="st2">Hardware peripherals</text></g></g></svg>