<svg xmlns="http://www.w3.org/2000/svg" xmlns:ev="http://www.w3.org/2001/xml-events" xmlns:xlink="http://www.w3.org/1999/xlink" width="695.366" height="86.028" class="st9" color-interpolation-filters="sRGB" viewBox="0 0 521.525 64.521" xml:space="preserve"><style type="text/css">.st1,.st2{stroke-width:1}.st1{stroke:#d9e1e2;stroke-dasharray:4,2;stroke-linecap:butt}.st2{fill:none;stroke:none}.st3{fill:#000;font-family:Calibri;font-size:1.00001em}.st4{stroke:#000;stroke-linecap:butt}.st4,.st5,.st6{stroke-width:1}.st5{stroke:#000;stroke-dasharray:8,4;stroke-linecap:butt}.st6{fill:#000;stroke:none}.st7,.st8{stroke:#ee2f4e;stroke-linecap:butt;stroke-width:1}.st8{stroke:#00a9ce}.st9{fill:none;fill-rule:evenodd;font-size:12px;overflow:visible;stroke-linecap:square;stroke-miterlimit:3}</style><g><title>Page-1</title><g id="shape1764-1" transform="translate(494.691,1.04221) rotate(90)"><title>Sheet.1764</title><path d="M0 64.52 L54.63 64.52" class="st1"/></g><g id="shape1765-4" transform="translate(512.112,1) rotate(90)"><title>Sheet.1765</title><path d="M0 64.52 L54.63 64.52" class="st1"/></g><g id="shape1762-7" transform="translate(227.467,1.1369) rotate(90)"><title>Sheet.1762</title><path d="M0 64.52 L54.63 64.52" class="st1"/></g><g id="shape1763-10" transform="translate(244.888,1.09469) rotate(90)"><title>Sheet.1763</title><path d="M0 64.52 L54.63 64.52" class="st1"/></g><g id="shape1752-13" transform="translate(1,-39.8799)"><title>Sheet.1752</title><desc>BLE_GRANT</desc><rect width="71.748" height="20" x="0" y="44.521" class="st2"/><text x="4" y="58.12" class="st3">BLE_GRANT</text></g><g id="shape1753-16" transform="translate(1,-12.4933)"><title>Sheet.1753</title><desc>BLE radio state</desc><rect width="83.087" height="20" x="0" y="44.521" class="st2"/><text x="4" y="58.12" class="st3">BLE radio state</text></g><g id="shape1754-19" transform="translate(1.88583,-29.1)"><title>Dynamic connector</title><path d="M0 57.43 L494.39 57.43" class="st4"/></g><g id="shape1755-22" transform="translate(1.88583,-1.71339)"><title>Dynamic connector.1755</title><path d="M0 57.43 L494.29 57.43" class="st4"/></g><g id="shape1756-25" transform="translate(80.8212,-44.1318)"><title>Dynamic connector.1756</title><path d="M0 57.43 L415.51 57.43" class="st5"/></g><g id="shape1757-28" transform="translate(80.7378,-15.4067)"><title>Dynamic connector.1757</title><path d="M0 57.43 L415.28 57.43" class="st5"/></g><g id="shape1759-31" transform="translate(80.213,-8.86646)"><title>Nordic Dark Grey</title><rect width=".942" height="54.64" x="0" y="9.88" class="st6"/></g><g id="shape1766-33" transform="translate(430.17,-29.1)"><title>Dynamic connector.1766</title><path d="M0 57.43 L0 42.4 L-267.22 42.4 L-267.22 57.43" class="st7"/></g><g id="shape1768-36" transform="translate(81.1547,-22.4933)"><title>Sheet.1768</title><path d="M0 64.52 L81.79 64.52" class="st8"/></g><g id="shape1769-39" transform="translate(202.818,-8.69911) rotate(38.1677)"><title>Sheet.1769</title><path d="M0 64.52 L22.16 64.52" class="st8"/></g><g id="shape1770-42" transform="translate(390.394,4.86743) rotate(-38.0609)"><title>Sheet.1770</title><path d="M0 64.52 L22.13 64.52" class="st8"/></g><g id="shape1771-45" transform="translate(447.592,-22.4933)"><title>Sheet.1771</title><path d="M0 64.52 L48.43 64.52" class="st8"/></g><g id="shape1772-48" transform="translate(496.273,-44.5995)"><title>Sheet.1772</title><desc>1</desc><rect width="14.74" height="12.288" x="0" y="52.232" class="st2"/><text x="4.33" y="61.98" class="st3">1</text></g><g id="shape1773-51" transform="translate(496.273,-30.0425)"><title>Sheet.1773</title><desc>0</desc><rect width="14.74" height="12.288" x="0" y="52.232" class="st2"/><text x="4.33" y="61.98" class="st3">0</text></g><g id="shape1774-54" transform="translate(496.273,-17.7542)"><title>Sheet.1774</title><desc>on</desc><rect width="21.417" height="12.288" x="0" y="52.232" class="st2"/><text x="4.39" y="61.98" class="st3">on</text></g><g id="shape1775-57" transform="translate(496.273,-3.19718)"><title>Sheet.1775</title><desc>off</desc><rect width="24.252" height="12.288" x="0" y="52.232" class="st2"/><text x="5.3" y="61.98" class="st3">off</text></g></g></svg>