<svg xmlns="http://www.w3.org/2000/svg" xmlns:ev="http://www.w3.org/2001/xml-events" xmlns:xlink="http://www.w3.org/1999/xlink" width="479.355" height="181.573" class="st10" color-interpolation-filters="sRGB" viewBox="0 0 359.516 136.18" xml:space="preserve"><style type="text/css">.st1{fill:#00a9ce;stroke:none;stroke-width:.75}.st2{fill:#fff;font-family:Calibri;font-size:1.00001em}.st3,.st4{stroke:#000}.st3{marker-end:url(#mrkr4-9);stroke-width:1}.st4{fill:#000;fill-opacity:1;stroke-opacity:1;stroke-width:.28409090909091}.st5{fill:none;stroke:none;stroke-width:.75}.st6{fill:#000;font-family:Calibri;font-size:1.00001em}.st7,.st8{stroke-width:1}.st7{marker-end:url(#mrkr4-9);marker-start:url(#mrkr4-31);stroke:#000}.st8{fill:none;stroke:none}.st9{baseline-shift:-32.4941%;font-size:.649882em}.st10{fill:none;fill-rule:evenodd;font-size:12px;overflow:visible;stroke-linecap:square;stroke-miterlimit:3}</style><defs id="Markers"><g id="lend4"><path d="M 2 1 L 0 0 L 2 -1 L 2 1" style="stroke:none"/></g><marker id="mrkr4-9" class="st4" markerUnits="strokeWidth" orient="auto" overflow="visible" refX="-7.04"><use transform="scale(-3.52,-3.52)" xlink:href="#lend4"/></marker><marker id="mrkr4-31" class="st4" markerUnits="strokeWidth" orient="auto" overflow="visible" refX="6.68"><use transform="scale(3.52)" xlink:href="#lend4"/></marker></defs><g><title>Page-1</title><g id="shape1875-1" transform="translate(108.986,-11.2994)"><title>Box.1875</title><desc>Radio activity</desc><rect width="79.701" height="70.157" x="0" y="66.022" class="st1"/><text x="7.06" y="104.7" class="st2">Radio activity</text></g><g id="shape1877-4" transform="translate(29.8542,-7.87096)"><title>Dynamic connector.1877</title><path d="M0 136.18 L0 32.66 L0 29.83" class="st3"/></g><g id="shape1878-10" transform="translate(0.75,-119.43)"><title>Sheet.1878</title><desc>ACTIVE</desc><rect width="56.294" height="16" x="0" y="120.18" class="st5"/><text x="10.71" y="131.78" class="st6">ACTIVE</text></g><g id="shape1880-13" transform="translate(329.022,-7.87097)"><title>Dynamic connector.1880</title><path d="M0 136.18 L0 32.66 L0 29.83" class="st3"/></g><g id="shape1881-18" transform="translate(300.1,-119.43)"><title>Sheet.1881</title><desc>nACTIVE</desc><rect width="58.666" height="16" x="0" y="120.18" class="st5"/><text x="8.74" y="131.78" class="st6">nACTIVE</text></g><g id="shape1883-21" transform="translate(236.545,-11.2994)"><title>Box.1883</title><desc>Radio activity</desc><rect width="79.701" height="70.157" x="0" y="66.022" class="st1"/><text x="7.06" y="104.7" class="st2">Radio activity</text></g><g id="group1888-24" transform="translate(29.8542,-102.717)"><title>Sheet.1888</title><g id="shape1889-25"><title>Dynamic connector.114</title><desc>tdistance</desc><path d="M6.68 136.18 L7.04 136.18 L70.92 136.18" class="st7"/></g><g id="shape1890-33" transform="translate(19.5404,-1.41386)"><title>Sheet.1890</title><desc>tdistance</desc><rect width="38.903" height="11.831" x="0" y="124.349" class="st8"/><text x="4.16" y="133.86" class="st6">t<tspan class="st9" dy="-.284em">distance</tspan></text></g></g><g id="group1891-37" transform="translate(157.505,-102.717)"><title>Sheet.1891</title><g id="shape1892-38"><title>Dynamic connector.114</title><desc>tdistance</desc><path d="M6.68 136.18 L7.04 136.18 L70.92 136.18" class="st7"/></g><g id="shape1893-45" transform="translate(19.5404,-1.41386)"><title>Sheet.1893</title><desc>tdistance</desc><rect width="38.903" height="11.831" x="0" y="124.349" class="st8"/><text x="4.16" y="133.86" class="st6">t<tspan class="st9" dy="-.284em">distance</tspan></text></g></g></g></svg>