<svg xmlns="http://www.w3.org/2000/svg" xmlns:ev="http://www.w3.org/2001/xml-events" xmlns:xlink="http://www.w3.org/1999/xlink" width="611.637" height="181.573" class="st10" color-interpolation-filters="sRGB" viewBox="0 0 458.728 136.18" xml:space="preserve"><style type="text/css">.st1,.st2{stroke:#000}.st1{marker-end:url(#mrkr4-6);stroke-width:1}.st2{fill:#000;fill-opacity:1;stroke-opacity:1;stroke-width:.28409090909091}.st3{fill:none;stroke:none;stroke-width:.75}.st4{fill:#000;font-family:Calibri;font-size:1.00001em}.st5{fill:#00a9ce;stroke:none;stroke-width:.75}.st6{fill:#fff;font-family:Calibri;font-size:1.00001em}.st7,.st8{stroke-width:1}.st7{marker-end:url(#mrkr4-6);marker-start:url(#mrkr4-47);stroke:#000}.st8{fill:none;stroke:none}.st9{baseline-shift:-32.4941%;font-size:.649882em}.st10{fill:none;fill-rule:evenodd;font-size:12px;overflow:visible;stroke-linecap:square;stroke-miterlimit:3}</style><defs id="Markers"><g id="lend4"><path d="M 2 1 L 0 0 L 2 -1 L 2 1" style="stroke:none"/></g><marker id="mrkr4-6" class="st2" markerUnits="strokeWidth" orient="auto" overflow="visible" refX="-7.04"><use transform="scale(-3.52,-3.52)" xlink:href="#lend4"/></marker><marker id="mrkr4-47" class="st2" markerUnits="strokeWidth" orient="auto" overflow="visible" refX="6.68"><use transform="scale(3.52)" xlink:href="#lend4"/></marker></defs><g><title>Page-1</title><g id="shape1851-1" transform="translate(201.462,-7.87097)"><title>Dynamic connector.2</title><path d="M0 136.18 L0 32.66 L0 29.83" class="st1"/></g><g id="shape1852-7" transform="translate(172.54,-119.43)"><title>Sheet.1852</title><desc>nACTIVE</desc><rect width="58.666" height="16" x="0" y="120.18" class="st3"/><text x="8.74" y="131.78" class="st4">nACTIVE</text></g><g id="shape1854-10" transform="translate(108.986,-11.2994)"><title>Box.115</title><desc>Radio activity</desc><rect width="79.701" height="70.157" x="0" y="66.022" class="st5"/><text x="7.06" y="104.7" class="st6">Radio activity</text></g><g id="shape1856-13" transform="translate(29.8542,-7.87096)"><title>Dynamic connector.1856</title><path d="M0 136.18 L0 32.66 L0 29.83" class="st1"/></g><g id="shape1857-18" transform="translate(0.75,-119.43)"><title>Sheet.1857</title><desc>ACTIVE</desc><rect width="56.294" height="16" x="0" y="120.18" class="st3"/><text x="10.71" y="131.78" class="st4">ACTIVE</text></g><g id="shape1859-21" transform="translate(428.234,-7.87097)"><title>Dynamic connector.1859</title><path d="M0 136.18 L0 32.66 L0 29.83" class="st1"/></g><g id="shape1860-26" transform="translate(399.312,-119.43)"><title>Sheet.1860</title><desc>nACTIVE</desc><rect width="58.666" height="16" x="0" y="120.18" class="st3"/><text x="8.74" y="131.78" class="st4">nACTIVE</text></g><g id="shape1862-29" transform="translate(335.758,-11.2994)"><title>Box.126</title><desc>Radio activity</desc><rect width="79.701" height="70.157" x="0" y="66.022" class="st5"/><text x="7.06" y="104.7" class="st6">Radio activity</text></g><g id="shape1864-32" transform="translate(257.675,-7.87096)"><title>Dynamic connector.1</title><path d="M0 136.18 L0 32.66 L0 29.83" class="st1"/></g><g id="shape1865-37" transform="translate(228.571,-119.43)"><title>Sheet.1865</title><desc>ACTIVE</desc><rect width="56.294" height="16" x="0" y="120.18" class="st3"/><text x="10.71" y="131.78" class="st4">ACTIVE</text></g><g id="group1868-40" transform="translate(31.0306,-102.835)"><title>Sheet.1868</title><g id="shape1853-41"><title>Dynamic connector.114</title><desc>tdistance</desc><path d="M6.68 136.18 L7.04 136.18 L70.92 136.18" class="st7"/></g><g id="shape1866-49" transform="translate(19.5404,-1.41386)"><title>Sheet.1866</title><desc>tdistance</desc><rect width="38.903" height="11.831" x="0" y="124.349" class="st8"/><text x="4.16" y="133.86" class="st4">t<tspan class="st9" dy="-.284em">distance</tspan></text></g></g><g id="group1869-53" transform="translate(257.675,-102.835)"><title>Sheet.1869</title><g id="shape1870-54"><title>Dynamic connector.114</title><desc>tdistance</desc><path d="M6.68 136.18 L7.04 136.18 L70.92 136.18" class="st7"/></g><g id="shape1871-61" transform="translate(19.5404,-1.41386)"><title>Sheet.1871</title><desc>tdistance</desc><rect width="38.903" height="11.831" x="0" y="124.349" class="st8"/><text x="4.16" y="133.86" class="st4">t<tspan class="st9" dy="-.284em">distance</tspan></text></g></g></g></svg>