<svg xmlns="http://www.w3.org/2000/svg" xmlns:ev="http://www.w3.org/2001/xml-events" xmlns:xlink="http://www.w3.org/1999/xlink" width="688.359" height="509.615" class="st22" color-interpolation-filters="sRGB" viewBox="0 0 516.27 382.211" xml:space="preserve"><style type="text/css">.st1{fill:#00a9ce;stroke:none;stroke-linecap:round;stroke-linejoin:round;stroke-width:.671491}.st2{fill:#fff;font-family:Arial;font-size:.833336em}.st3,.st4{fill:none;stroke:none;stroke-width:.75}.st3{stroke-linecap:round;stroke-linejoin:round}.st4{stroke-linecap:butt}.st5{fill:#333f48;font-family:Arial;font-size:.833336em}.st6,.st7{fill:#00a9ce;stroke:none;stroke-linecap:round;stroke-linejoin:round;stroke-width:.75}.st7{stroke-width:.641055}.st8{fill:#feffff;font-family:Arial;font-size:.833336em;font-stretch:normal}.st10,.st9{fill:#00a9ce;stroke:none;stroke-linecap:round;stroke-linejoin:round}.st9{stroke-width:.621042}.st10{stroke-width:.566707}.st11{fill:#fff;font-family:Arial;font-size:.833336em;font-stretch:semi-condensed}.st12{fill:#00a9ce;stroke:none;stroke-linecap:round;stroke-linejoin:round;stroke-width:.8545}.st13{fill:#333f48;font-family:Arial;font-size:.833336em;font-stretch:semi-condensed}.st14{fill:#00a9ce;stroke:none;stroke-linecap:round;stroke-linejoin:round;stroke-width:.751697}.st15,.st16{fill:none;stroke:#333f48;stroke-width:.99975}.st16{stroke-width:.999749}.st17,.st18{fill:#00a9ce;stroke:none;stroke-linecap:round;stroke-linejoin:round;stroke-width:.670945}.st18{stroke-width:.940487}.st19,.st20{stroke:#333f48}.st19{marker-end:url(#mrkr4-58);marker-start:url(#mrkr4-56);stroke-linecap:butt;stroke-width:1}.st20{fill:#333f48;fill-opacity:1;stroke-opacity:1;stroke-width:.28409090909091}.st21{fill:none;stroke:none;stroke-width:1}.st22{fill:none;fill-rule:evenodd;font-size:12px;overflow:visible;stroke-linecap:square;stroke-miterlimit:3}</style><defs id="Markers"><g id="lend4"><path d="M 2 1 L 0 0 L 2 -1 L 2 1" style="stroke:none"/></g><marker id="mrkr4-56" class="st20" markerUnits="strokeWidth" orient="auto" overflow="visible" refX="6.68"><use transform="scale(3.52)" xlink:href="#lend4"/></marker><marker id="mrkr4-58" class="st20" markerUnits="strokeWidth" orient="auto" overflow="visible" refX="-7.04"><use transform="scale(-3.52,-3.52)" xlink:href="#lend4"/></marker></defs><g><title>Page-1</title><g id="shape207-1" transform="translate(404.025,-288.636)"><title>path4906</title><desc>Bluetooth Host</desc><rect width="105.951" height="56.667" x="0" y="325.545" class="st1"/><text x="20.18" y="356.88" class="st2">Bluetooth Host</text></g><g id="shape209-4" transform="translate(429.208,-312.54)"><title>path4913</title><rect width="55.193" height="12.302" x="0" y="369.91" class="st3"/></g><g id="shape213-6" transform="translate(338.292,-241.51)"><title>text4924</title><desc>SoftDevice Controller</desc><rect width="167.855" height="15.764" x="0" y="366.447" class="st4"/><text x="36.69" y="377.33" class="st5">SoftDevice Controller</text></g><g id="shape216-9" transform="translate(0.85024,-0.375)"><title>path4942</title><desc>Hardware peripherals</desc><path d="M0 348.11 L0 382.21 L509.47 382.21 L509.47 348.11 L0 348.11 Z" class="st6"/><text x="206.94" y="368.16" class="st2">Hardware peripherals</text></g><g id="shape218-12" transform="translate(189.955,-11.743)"><title>path4949</title><rect width="131.265" height="13.812" x="0" y="368.399" class="st3"/></g><g id="shape221-14" transform="translate(211.203,-185.414)"><title>path4959</title><desc>Multiprotocol API</desc><rect width="87.406" height="48.569" x="0" y="333.643" class="st7"/><text x="6.63" y="360.93" class="st8">Multiprotocol API</text></g><g id="shape224-17" transform="translate(123.584,-124.693)"><title>path4970</title><desc>SoC API</desc><path d="M82.03 272.92 L82.03 321.59 L52.07 321.59 L52.07 382.21 L0 382.21 L0 272.92 L82.03 272.92 Z" class="st9"/><text x="21.84" y="293.92" class="st2">SoC API</text></g><g id="shape228-20" transform="translate(182.532,-124.693)"><title>path4981</title><desc>Radio Scheduler</desc><rect width="116.229" height="53.307" x="0" y="328.904" class="st10"/><text x="23.04" y="358.56" class="st11">Radio Scheduler</text></g><g id="shape243-23" transform="translate(147.134,-97.6283)"><title>text5015</title><desc>IRQ Forwarding</desc><rect width="77.037" height="11.26" x="0" y="370.951" class="st4"/><text x="6.46" y="379.58" class="st5">IRQ Forwarding</text></g><g id="shape245-26" transform="translate(338.292,-125.355)"><title>path4906-7</title><desc>Link Layer</desc><rect width="90.272" height="108.652" x="0" y="273.559" class="st12"/><text x="22.07" y="330.89" class="st2">Link Layer</text></g><g id="shape249-29" transform="translate(122.487,-242.824)"><title>text4924-6</title><desc>MPSL</desc><rect width="176.121" height="15.764" x="0" y="366.447" class="st4"/><text x="75.79" y="377.33" class="st13">MPSL</text></g><g id="shape268-32" transform="translate(436.289,-125.477)"><title>path4906-7-0</title><desc>SoC API</desc><rect width="69.858" height="108.747" x="0" y="273.464" class="st14"/><text x="15.75" y="330.84" class="st2">SoC API</text></g><g id="shape271-35" transform="translate(329.392,-117.787)"><title>rect7120</title><rect width="185.878" height="148.81" x="0" y="233.401" class="st15"/></g><g id="shape272-37" transform="translate(115.579,-117.787)"><title>rect7120-2</title><rect width="191.787" height="148.81" x="0" y="233.401" class="st16"/></g><g id="group273-39" transform="translate(1,-58.3622)"><title>Sheet.273</title><g id="shape179-40" transform="translate(168.547,-230.274)"><title>path4856</title><path d="M340.92 289.11 L340.92 318.05 L227 318.05 L227 382.21 L0 382.21 L0 289.11 L340.92 289.11 Z" class="st17"/></g><g id="shape181-42" transform="translate(1.30296E-12,-57.9536)"><title>path4861</title><path d="M0 116.79 L0 382.21 L104.26 382.21 L104.26 116.79 L0 116.79 Z" class="st6"/></g><g id="shape203-44"><title>path4896</title><path d="M0 353.15 L0 382.21 L254.58 382.21 L254.58 353.15 L0 353.15 Z" class="st6"/></g><g id="shape205-46" transform="translate(1.30296E-12,-25.8519)"><title>path4901</title><path d="M0 341.75 L0 382.21 L104.26 382.21 L104.26 341.75 L0 341.75 Z" class="st6"/></g><g id="shape256-48" transform="translate(60.8473,-230.271)"><title>path4906-1</title><rect width="126.495" height="93.108" x="0" y="289.103" class="st18"/></g></g><g id="shape281-50" transform="translate(449.914,-288.636)"><title>Dynamic connector</title><path d="M7.09 388.89 L7.09 389.25 L7.09 396.75" class="st19"/></g><g id="shape282-59" transform="translate(372.99,-288.636)"><title>Dynamic connector.282</title><path d="M7.09 388.89 L7.09 389.25 L7.09 397.21" class="st19"/></g><g id="shape283-66" transform="translate(217.935,-288.636)"><title>Dynamic connector.283</title><path d="M-7.09 388.89 L-7.09 389.25 L-7.09 396.88" class="st19"/></g><g id="shape284-73" transform="translate(307.366,-185.105)"><title>Dynamic connector.284</title><path d="M6.68 375.12 L7.04 375.12 L14.99 375.12" class="st19"/></g><g id="shape285-80" transform="translate(235.439,-117.787)"><title>Dynamic connector.285</title><path d="M-7.05 388.89 L-7.05 389.25 L-7.12 405.54" class="st19"/></g><g id="shape286-87" transform="translate(273.778,-117.787)"><title>Dynamic connector.286</title><path d="M7.09 388.89 L7.09 389.25 L7.09 458.16" class="st19"/></g><g id="shape289-94" transform="translate(133.939,-54.318)"><title>Dynamic connector.289</title><path d="M7.09 388.89 L7.09 389.25 L7.09 396.88" class="st19"/></g><g id="shape290-101" transform="translate(415.244,-117.787)"><title>Dynamic connector.290</title><path d="M7.09 388.89 L7.09 389.25 L7.09 458.42" class="st19"/></g><g id="shape291-108" transform="translate(1,-314.561)"><title>Sheet.291</title><desc>Application</desc><rect width="394.667" height="20.419" x="0" y="361.793" class="st21"/><text x="172.87" y="375" class="st2">Application</text></g></g></svg>