<svg xmlns="http://www.w3.org/2000/svg" xmlns:ev="http://www.w3.org/2001/xml-events" xmlns:xlink="http://www.w3.org/1999/xlink" width="637.893" height="179.971" class="st13" color-interpolation-filters="sRGB" viewBox="0 0 478.42 134.978" xml:space="preserve"><style type="text/css">.st1{fill:none;stroke:none;stroke-linecap:butt;stroke-width:.75}.st2{fill:#333f48;font-family:Arial;font-size:1.00001em}.st3{fill:#000}.st4{stroke:#333f48;stroke-width:1}.st5{fill:#00a9ce;stroke:none;stroke-width:.75}.st6{fill:#fff;font-family:Arial;font-size:1.00001em}.st7{stroke:#768692;stroke-dasharray:7,5;stroke-width:1}.st8,.st9{stroke:#333f48}.st8{marker-start:url(#mrkr4-63);stroke-width:1}.st9{fill:#333f48;fill-opacity:1;stroke-opacity:1;stroke-width:.28409090909091}.st10,.st11{stroke-width:1}.st10{marker-end:url(#mrkr4-69);stroke:#333f48}.st11{fill:none;stroke:none}.st12{fill:#333f48;font-family:Arial;font-size:.666664em}.st13{fill:none;fill-rule:evenodd;font-size:12px;overflow:visible;stroke-linecap:square;stroke-miterlimit:3}</style><defs id="Markers"><g id="lend4"><path d="M 2 1 L 0 0 L 2 -1 L 2 1" style="stroke:none"/></g><marker id="mrkr4-63" class="st9" markerUnits="strokeWidth" orient="auto" overflow="visible" refX="6.68"><use transform="scale(3.52)" xlink:href="#lend4"/></marker><marker id="mrkr4-69" class="st9" markerUnits="strokeWidth" orient="auto" overflow="visible" refX="-7.04"><use transform="scale(-3.52,-3.52)" xlink:href="#lend4"/></marker></defs><g><title>Page-1</title><g id="shape666-1" transform="translate(0.75,-57.5652)"><title>Sheet.666</title><desc>BLE_REQUEST</desc><rect width="97.277" height="15.782" x="0" y="119.196" class="st1"/><text x="5.92" y="130.69" class="st2">BLE_REQUEST</text></g><g id="shape667-4" transform="translate(0.75,-29.1575)"><title>Sheet.667</title><desc>BLE_PRIORITY</desc><rect width="97.277" height="15.782" x="0" y="119.196" class="st1"/><text x="7.25" y="130.69" class="st2">BLE_PRIORITY</text></g><g id="shape668-7" transform="translate(0.75,-0.75)"><title>Sheet.668</title><desc>BLE_GRANT</desc><rect width="97.277" height="15.782" x="0" y="119.196" class="st1"/><text x="21.92" y="130.69" class="st2">BLE_GRANT</text></g><g id="shape669-10" transform="translate(444.467,-59.1197)"><title>Sheet.669</title><path d="M0 134.98 L31.55 134.98 L0 134.98 Z" class="st3"/><path d="M0 134.98 L31.55 134.98" class="st4"/></g><g id="shape670-13" transform="translate(100.966,-12.759)"><title>Sheet.670</title><path d="M0 134.98 L376.45 134.98 L0 134.98 Z" class="st3"/><path d="M0 134.98 L376.45 134.98" class="st4"/></g><g id="shape671-16" transform="translate(248.951,-46.0983)"><title>Sheet.671</title><path d="M0 134.98 L100.45 134.98 L0 134.98 Z" class="st3"/><path d="M0 134.98 L100.45 134.98" class="st4"/></g><g id="shape672-19" transform="translate(52.732,75.8602) rotate(-90)"><title>Sheet.672</title><path d="M0 134.98 L14.21 134.98 L0 134.98 Z" class="st3"/><path d="M0 134.98 L14.21 134.98" class="st4"/></g><g id="shape673-22" transform="translate(579.016,61.6564) rotate(90)"><title>Sheet.673</title><path d="M0 134.98 L14.21 134.98 L0 134.98 Z" class="st3"/><path d="M0 134.98 L14.21 134.98" class="st4"/></g><g id="shape674-25" transform="translate(383.93,88.8817) rotate(90)"><title>Sheet.674</title><path d="M0 134.98 L14.21 134.98 L0 134.98 Z" class="st3"/><path d="M0 134.98 L14.21 134.98" class="st4"/></g><g id="shape675-28" transform="translate(484.38,88.8817) rotate(90)"><title>Sheet.675</title><path d="M0 134.98 L14.21 134.98 L0 134.98 Z" class="st3"/><path d="M0 134.98 L14.21 134.98" class="st4"/></g><g id="shape676-31" transform="translate(349.401,-31.8944)"><title>Sheet.676</title><path d="M0 134.98 L126.61 134.98 L0 134.98 Z" class="st3"/><path d="M0 134.98 L126.61 134.98" class="st4"/></g><g id="shape677-34" transform="translate(102.527,-60.1132) rotate(0.662138)"><title>Sheet.677</title><path d="M0 134.98 L86.75 134.98 L0 134.98 Z" class="st3"/><path d="M0 134.98 L86.75 134.98" class="st4"/></g><g id="shape678-37" transform="translate(188.005,-73.8789) rotate(0.124196)"><title>Sheet.678</title><path d="M0 134.98 L256.33 134.98 L0 134.98 Z" class="st3"/><path d="M0 134.98 L256.33 134.98" class="st4"/></g><g id="shape680-40" transform="translate(166.303,-104.809)"><title>Sheet.680</title><desc>ADV_IND</desc><rect width="75.601" height="26.335" x="0" y="108.643" class="st5"/><text x="11.79" y="125.41" class="st6">ADV_IND</text></g><g id="shape682-43" transform="translate(253.03,-104.166)"><title>Sheet.682</title><desc>SCAN_REQ</desc><rect width="89.443" height="26.335" x="0" y="108.643" class="st5"/><text x="11.71" y="125.41" class="st6">SCAN_REQ</text></g><g id="shape684-46" transform="translate(352.685,-104.166)"><title>Sheet.684</title><desc>SCAN_RSP</desc><rect width="91.721" height="26.335" x="0" y="108.643" class="st5"/><text x="13.52" y="125.41" class="st6">SCAN_RSP</text></g><g id="shape685-49" transform="translate(101.764,-32.7654) rotate(0.338132)"><title>Sheet.685</title><path d="M0 134.98 L147.98 134.98 L0 134.98 Z" class="st3"/><path d="M0 134.98 L147.98 134.98" class="st4"/></g><g id="shape696-52" transform="translate(218.498,101.63) rotate(-90)"><title>Sheet.696</title><path d="M0 134.98 L70.28 134.98 L0 134.98 Z" class="st3"/><path d="M0 134.98 L70.28 134.98" class="st7"/></g><g id="shape699-55" transform="translate(214.418,87.4869) rotate(-90)"><title>Sheet.699</title><path d="M0 134.98 L86.49 134.98 L0 134.98 Z" class="st3"/><path d="M0 134.98 L86.49 134.98" class="st7"/></g><g id="shape701-58" transform="translate(357.017,-84.3088)"><title>Sheet.701</title><path d="M6.68 134.98 L7.04 134.98 L18.72 134.98" class="st8"/></g><g id="shape702-64" transform="translate(327.346,-84.3088)"><title>Sheet.702</title><path d="M0 134.98 L11.68 134.98" class="st10"/></g><g id="shape705-70" transform="translate(117.681,87.9107) rotate(-90)"><title>Sheet.705</title><path d="M0 134.98 L57.86 134.98 L0 134.98 Z" class="st3"/><path d="M0 134.98 L57.86 134.98" class="st7"/></g><g id="shape708-73" transform="translate(113.972,87.9107) rotate(-90)"><title>Sheet.708</title><path d="M0 134.98 L85.87 134.98 L0 134.98 Z" class="st3"/><path d="M0 134.98 L85.87 134.98" class="st7"/></g><g id="shape710-76" transform="translate(256.507,-84.3678)"><title>Sheet.710</title><path d="M6.68 134.98 L7.04 134.98 L18.72 134.98" class="st8"/></g><g id="shape711-81" transform="translate(226.836,-84.3678)"><title>Sheet.711</title><path d="M0 134.98 L11.68 134.98" class="st10"/></g><g id="group712-86" transform="translate(197.163,-81.8044)"><title>Sheet.712</title><g id="shape713-87" transform="translate(3.19744E-14,-0.272734)"><title>Sheet.713</title><desc>t</desc><rect width="12.549" height="9.251" x="0" y="125.728" class="st11"/><text x="4.61" y="133.95" class="st2">t</text></g><g id="shape714-90" transform="translate(2.13576,-2.84217E-14)"><title>Sheet.714</title><desc>radio</desc><rect width="30.234" height="7.739" x="0" y="127.24" class="st11"/><text x="6.22" y="134.71" class="st12">radio</text></g></g><g id="group715-93" transform="translate(299.522,-81.9351)"><title>Sheet.715</title><g id="shape716-94" transform="translate(3.19744E-14,-0.272734)"><title>Sheet.716</title><desc>t</desc><rect width="12.549" height="9.251" x="0" y="125.728" class="st11"/><text x="4.61" y="133.95" class="st2">t</text></g><g id="shape717-97" transform="translate(2.13576,-2.84217E-14)"><title>Sheet.717</title><desc>radio</desc><rect width="30.234" height="7.739" x="0" y="127.24" class="st11"/><text x="6.22" y="134.71" class="st12">radio</text></g></g></g></svg>