<svg xmlns="http://www.w3.org/2000/svg" xmlns:ev="http://www.w3.org/2001/xml-events" xmlns:xlink="http://www.w3.org/1999/xlink" width="720.777" height="410.683" class="st17" color-interpolation-filters="sRGB" viewBox="0 0 540.583 308.012" xml:space="preserve"><style type="text/css">.st1{fill:#feffff;stroke:#0077c8;stroke-dasharray:.5,1;stroke-width:.5}.st2{fill:#0033a0;stroke:none;stroke-width:1}.st3{fill:#feffff;font-family:Arial;font-size:.833336em}.st4{font-size:1em}.st5,.st6{fill:#6ad1e3;stroke:none;stroke-width:1}.st6{fill:#00a9ce}.st7{fill:#feffff;font-family:Arial;font-size:.75em}.st8{fill:none;stroke:none;stroke-width:.5}.st9{marker-end:url(#mrkr13-42);stroke:#000;stroke-linecap:butt;stroke-width:1}.st10{fill:#000;fill-opacity:1;stroke:#000;stroke-opacity:1;stroke-width:.28409090909091}.st11{fill:none;marker-end:url(#mrkr13-46);stroke:none;stroke-width:1}.st12{fill:#feffff;fill-opacity:1;stroke:#feffff;stroke-opacity:1;stroke-width:.28409090909091}.st13,.st14{fill:#00a9ce;font-family:Arial;font-size:.916672em}.st14{fill:#fff;font-size:.833336em}.st15,.st16{stroke:#333f48}.st15{marker-end:url(#mrkr13-75);marker-start:url(#mrkr13-73);stroke-linecap:butt;stroke-width:1}.st16{fill:#333f48;fill-opacity:1;stroke-opacity:1;stroke-width:.28409090909091}.st17{fill:none;fill-rule:evenodd;font-size:12px;overflow:visible;stroke-linecap:square;stroke-miterlimit:3}</style><defs id="Markers"><g id="lend13"><path d="M 3 1 L 0 0 L 3 -1 L 3 1" style="stroke:none"/></g><marker id="mrkr13-42" class="st10" markerUnits="strokeWidth" orient="auto" overflow="visible" refX="-10.56"><use transform="scale(-3.52,-3.52)" xlink:href="#lend13"/></marker><marker id="mrkr13-46" class="st12" markerUnits="strokeWidth" orient="auto" overflow="visible" refX="-10.56"><use transform="scale(-3.52,-3.52)" xlink:href="#lend13"/></marker><marker id="mrkr13-73" class="st16" markerUnits="strokeWidth" orient="auto" overflow="visible" refX="10.2"><use transform="scale(3.52)" xlink:href="#lend13"/></marker><marker id="mrkr13-75" class="st16" markerUnits="strokeWidth" orient="auto" overflow="visible" refX="-10.56"><use transform="scale(-3.52,-3.52)" xlink:href="#lend13"/></marker></defs><g><title>Page-1</title><g id="shape14-1" transform="translate(1.00004,-244.65)"><title>Rectangle.10</title><path d="M0 308.01 L538.58 308.01 L538.58 246.03 L0 246.03 L0 308.01 Z" class="st1"/></g><g id="shape23-3" transform="translate(1,-1.16709)"><title>Nordic Blueslate</title><desc>nRF9160 modem firmware</desc><rect width="538.583" height="70.866" x="0" y="237.146" class="st2"/><text x="210.1" y="305.88" class="st3">nRF9160 <tspan class="st4">m</tspan>odem firmware</text></g><g id="shape65-7" transform="translate(1.00004,-121.302)"><title>Nordic Sky.65</title><rect width="538.583" height="89.764" x="0" y="218.248" class="st5"/></g><g id="shape94-9" transform="translate(1.00004,-244.65)"><title>Nordic Blue.94</title><desc>Application / RTOS</desc><rect width="538.583" height="62.362" x="0" y="245.65" class="st6"/><text x="226.77" y="280.13" class="st3">Application / RTOS</text></g><g id="shape97-12" transform="translate(90.0889,-142.899)"><title>Nordic Blueslate.97</title><desc>nrf_modem_at</desc><rect width="76.94" height="54.64" x="0" y="253.372" class="st2"/><text x="9.46" y="283.39" class="st7">nrf_modem_at</text></g><g id="shape98-15" transform="translate(172.26,-142.252)"><title>Nordic Blueslate.98</title><desc>nrf_modem_gnss</desc><rect width="82.677" height="54.64" x="0" y="253.372" class="st2"/><text x="6.57" y="283.39" class="st7">nrf_modem_gnss</text></g><g id="shape99-18" transform="translate(260.168,-142.252)"><title>Nordic Blueslate.99</title><desc>nrf_modem_delta_dfu</desc><rect width="103.262" height="54.64" x="0" y="253.372" class="st2"/><text x="7.85" y="283.39" class="st7">nrf_modem_delta_dfu</text></g><g id="shape100-21" transform="translate(466.861,-142.252)"><title>Nordic Blueslate.100</title><desc>nrf_modem</desc><rect width="64.218" height="54.64" x="0" y="253.372" class="st2"/><text x="9.35" y="283.39" class="st7">nrf_modem</text></g><g id="shape101-24" transform="translate(368.66,-142.252)"><title>Nordic Blueslate.101</title><desc>nrf_modem_full_dfu</desc><rect width="92.97" height="54.64" x="0" y="253.372" class="st2"/><text x="6.71" y="283.39" class="st7">nrf_modem_full_dfu</text></g><g id="shape115-27" transform="translate(7.91792,-142.899)"><title>Nordic Blueslate.115</title><desc>nrf_socket</desc><rect width="76.94" height="54.64" x="0" y="253.372" class="st2"/><text x="17.71" y="283.39" class="st7">nrf_socket</text></g><g id="shape120-30" transform="translate(436.321,-244.65)"><title>Nordic Sky</title><desc>nrf_modem_os</desc><rect width="103.262" height="45.651" x="0" y="262.361" class="st5"/><text x="18.28" y="288.49" class="st3">nrf_modem_os</text></g><g id="shape128-33" transform="translate(217.648,-121.302)"><title>Rectangle.1000</title><desc>Modem library</desc><rect width="76.94" height="20.511" x="0" y="287.502" class="st8"/><text x="6.8" y="300.5" class="st3">Modem library</text></g><g id="group129-36" transform="translate(220.685,-211.066)"><title>Task</title><g id="shape130-37" transform="translate(31.8898,-32.2363)"><title>Dynamic connector</title><path d="M7.09 308.01 L7.09 329.69" class="st9"/></g><g id="shape131-43" transform="translate(0,-32.2363)"><title>Sheet.131</title><desc>Task</desc><rect width="77.953" height="17.008" x="0" y="291.004" class="st11"/><text x="27.06" y="302.81" class="st13">Task</text></g></g><g id="group132-48" transform="translate(526.928,373.912) rotate(180)"><title>Task.132</title><g id="shape133-49" transform="translate(46.063,-32.2363)"><title>Dynamic connector</title><path d="M-7.09 308.01 L-7.09 332.23" class="st9"/></g><g id="shape134-54" transform="translate(0,-32.2363)"><title>Sheet.134</title><rect width="77.953" height="17.008" x="0" y="291.004" class="st11"/></g></g><g id="shape135-57" transform="translate(11.4106,-18.0266)"><title>Nordic Sky.135</title><desc>IP Stack</desc><rect width="64.218" height="45.651" x="0" y="262.361" class="st5"/><text x="13.49" y="288.19" class="st14">IP Stack</text></g><g id="shape136-60" transform="translate(185.252,-18.0266)"><title>Nordic Sky.136</title><desc>GNSS Stack</desc><rect width="64.218" height="45.651" x="0" y="262.361" class="st5"/><text x="4.04" y="288.19" class="st14">GNSS Stack</text></g><g id="shape137-63" transform="translate(96.45,-18.0266)"><title>Nordic Sky.137</title><desc>AT commands</desc><rect width="64.218" height="45.651" x="0" y="262.361" class="st5"/><text x="25.72" y="282.19" class="st14">AT <tspan x="7.66" class="st4" dy="1.2em">commands</tspan></text></g><g id="shape181-67" transform="translate(224.846,-142.252)"><title>Dynamic connector.181</title><path d="M-7 318.21 L-7.01 318.57 L-7.17 376.03" class="st15"/></g><g id="shape182-76" transform="translate(135.757,-142.252)"><title>Dynamic connector.182</title><path d="M-7 318.21 L-7.01 318.57 L-7.17 376.03" class="st15"/></g><g id="shape183-83" transform="translate(50.4952,-143.801)"><title>Dynamic connector.183</title><path d="M-7 318.21 L-7.01 318.57 L-7.17 376.03" class="st15"/></g><g id="shape184-90" transform="translate(305.724,-142.252)"><title>Dynamic connector.184</title><path d="M7.09 318.21 L7.09 318.57 L7.09 376.03" class="st15"/></g><g id="shape185-97" transform="translate(404.937,-142.252)"><title>Dynamic connector.185</title><path d="M7.09 318.21 L7.09 318.57 L7.09 376.03" class="st15"/></g><g id="shape187-104" transform="translate(371.866,-18.0266)"><title>Nordic Sky.187</title><desc>Full updates</desc><rect width="82.677" height="45.651" x="0" y="262.361" class="st5"/><text x="14.1" y="288.19" class="st14">Full updates</text></g><g id="shape188-107" transform="translate(274.341,-18.0266)"><title>Nordic Sky.188</title><desc>Delta updates</desc><rect width="77.953" height="45.651" x="0" y="262.361" class="st5"/><text x="8.12" y="288.19" class="st14">Delta updates</text></g></g></svg>