<svg xmlns="http://www.w3.org/2000/svg" xmlns:ev="http://www.w3.org/2001/xml-events" xmlns:xlink="http://www.w3.org/1999/xlink" width="730.207" height="312.182" class="st9" color-interpolation-filters="sRGB" viewBox="0 0 547.655 234.137" xml:space="preserve"><style type="text/css">.st1{fill:#00a9ce;stroke:none;stroke-linecap:butt;stroke-width:.692021}.st2{fill:#fff;font-family:Arial;font-size:1.00001em}.st3,.st4{fill:#00a9ce;stroke:none;stroke-linecap:butt;stroke-width:.441518}.st4{stroke-width:.578304}.st5{font-size:1em}.st6{fill:#0033a0;stroke:none;stroke-linecap:butt;stroke-width:.75}.st7,.st8{stroke:#333f48}.st7{marker-end:url(#mrkr4-22);marker-start:url(#mrkr4-20);stroke-linecap:butt;stroke-width:1}.st8{fill:#333f48;fill-opacity:1;stroke-opacity:1;stroke-width:.28409090909091}.st9{fill:none;fill-rule:evenodd;font-size:12px;overflow:visible;stroke-linecap:square;stroke-miterlimit:3}</style><defs id="Markers"><g id="lend4"><path d="M 2 1 L 0 0 L 2 -1 L 2 1" style="stroke:none"/></g><marker id="mrkr4-20" class="st8" markerUnits="strokeWidth" orient="auto" overflow="visible" refX="6.68"><use transform="scale(3.52)" xlink:href="#lend4"/></marker><marker id="mrkr4-22" class="st8" markerUnits="strokeWidth" orient="auto" overflow="visible" refX="-7.04"><use transform="scale(-3.52,-3.52)" xlink:href="#lend4"/></marker></defs><g><title>Page-1</title><g id="shape2198-1" transform="translate(330.638,-0.75)"><title>rect6630</title><desc>Modem library</desc><rect width="216.325" height="93.21" x="0" y="140.926" class="st1"/><text x="70.15" y="191.13" class="st2">Modem library</text></g><g id="shape2201-4" transform="translate(134.6,-126.818)"><title>rect6620</title><desc>Application</desc><rect width="412.027" height="106.094" x="0" y="128.042" class="st3"/><text x="176.66" y="184.69" class="st2">Application</text></g><g id="shape2204-7" transform="translate(133.904,-0.75)"><title>rect6630-4</title><desc>nrf_modem_os.c Modem library OS adaptation</desc><rect width="165.691" height="93.367" x="0" y="140.769" class="st4"/><text x="38.16" y="183.85" class="st2">nrf_modem_os.c <tspan x="4.81" class="st5" dy="1.2em">Modem library OS adaptation</tspan></text></g><g id="shape2208-11" transform="translate(0.75,-0.75)"><title>rect6753</title><desc>OS</desc><rect width="103.478" height="232.637" x="0" y="1.5" class="st6"/><text x="43.07" y="121.42" class="st2">OS</text></g><g id="shape2218-14" transform="translate(104.35,-40.347)"><title>Dynamic connector</title><path d="M6.68 227.05 L7.04 227.05 L22.51 227.05" class="st7"/></g><g id="shape2219-23" transform="translate(299.595,-54.4855)"><title>Dynamic connector.2219</title><path d="M6.68 241.22 L7.04 241.22 L24 241.23" class="st7"/></g><g id="shape2220-30" transform="translate(431.714,-93.9603)"><title>Dynamic connector.2220</title><path d="M7.09 227.46 L7.09 227.1 L7.09 208.43" class="st7"/></g><g id="shape2221-37" transform="translate(104.228,-187.255)"><title>Dynamic connector.2221</title><path d="M6.68 241.05 L7.04 241.06 L23.33 241.39" class="st7"/></g></g></svg>