<svg xmlns="http://www.w3.org/2000/svg" xmlns:ev="http://www.w3.org/2001/xml-events" xmlns:xlink="http://www.w3.org/1999/xlink" width="737.82" height="686.337" class="st21" color-interpolation-filters="sRGB" viewBox="0 0 553.364 514.753" xml:space="preserve"><style type="text/css">.st1{fill:#00a9ce;stroke:none;stroke-width:1}.st2{fill:#feffff;font-family:Arial;font-size:1.00001em}.st3{font-size:1em}.st4{fill:#6ad1e3;stroke:none;stroke-width:1}.st5{fill:#333f48;font-family:Arial;font-size:1.00001em}.st6{font-size:.749994em}.st7{fill:#0077c8;stroke:none;stroke-width:1}.st8{fill:#fff;font-family:Arial;font-size:1.00001em}.st9{fill:#0033a0;stroke:none}.st10,.st11,.st9{stroke-width:1}.st10{fill:#333f48;stroke:none}.st11{stroke:#333f48;stroke-linecap:butt}.st12,.st13{fill:#ee2f4e;stroke:none;stroke-width:1}.st13{fill:#d9e1e2}.st14{fill:#333f48;font-family:Arial;font-size:.833336em}.st15,.st16{stroke:#333f48}.st15{marker-start:url(#mrkr4-45);stroke-linecap:butt;stroke-width:1}.st16{fill:#333f48;fill-opacity:1;stroke-opacity:1;stroke-width:.28409090909091}.st17{fill:none;stroke:none;stroke-width:1}.st18{fill:#333f48;font-family:Arial;font-size:.916672em}.st19{marker-start:url(#mrkr4-45)}.st19,.st20{marker-end:url(#mrkr4-82);stroke:#333f48;stroke-linecap:butt;stroke-width:1}.st21{fill:none;fill-rule:evenodd;font-size:12px;overflow:visible;stroke-linecap:square;stroke-miterlimit:3}</style><defs id="Markers"><g id="lend4"><path d="M 2 1 L 0 0 L 2 -1 L 2 1" style="stroke:none"/></g><marker id="mrkr4-45" class="st16" markerUnits="strokeWidth" orient="auto" overflow="visible" refX="6.68"><use transform="scale(3.52)" xlink:href="#lend4"/></marker><marker id="mrkr4-82" class="st16" markerUnits="strokeWidth" orient="auto" overflow="visible" refX="-7.04"><use transform="scale(-3.52,-3.52)" xlink:href="#lend4"/></marker></defs><g><title>Page-1</title><g id="shape2642-1" transform="translate(46.0506,-212.158)"><title>Rectangle</title><desc>Secure / non-secure Application RAM</desc><rect width="152.585" height="293.795" x="0" y="220.958" class="st1"/><text x="22.26" y="364.26" class="st2">Secure / non-secure <tspan x="31.94" class="st3" dy="1.2em">Application RAM</tspan></text></g><g id="shape2643-5" transform="translate(46.0506,-178.271)"><title>Rectangle.2643</title><desc>Control CONTROL_BASE_ADDR</desc><rect width="152.585" height="33.887" x="0" y="480.866" class="st4"/><text x="56.95" y="494.21" class="st5">Control <tspan x="24.53" class="st6" dy="1.6em">CONTROL_BASE_ADDR</tspan></text></g><g id="shape2644-9" transform="translate(46.0506,-144.384)"><title>Rectangle.2644</title><desc>TX TX_BASE_ADDR</desc><rect width="152.585" height="33.887" x="0" y="480.866" class="st7"/><text x="68.63" y="494.21" class="st8">TX <tspan x="40.78" class="st6" dy="1.6em">TX_BASE_ADDR</tspan></text></g><g id="shape2645-13" transform="translate(46.0506,-110.497)"><title>Rectangle.2645</title><desc>RX RX_BASE_ADDR</desc><rect width="152.585" height="33.887" x="0" y="480.866" class="st9"/><text x="67.96" y="494.21" class="st8">RX <tspan x="40.28" class="st6" dy="1.6em">RX_BASE_ADDR</tspan></text></g><g id="shape2646-17" transform="translate(46.0506,-76.6101)"><title>Rectangle.2646</title><desc>Trace TRACE_BASE_ADDR</desc><rect width="152.585" height="33.887" x="0" y="480.866" class="st10"/><text x="60.96" y="494.21" class="st8">Trace <tspan x="31.28" class="st6" dy="1.6em">TRACE_BASE_ADDR</tspan></text></g><g id="shape2647-21" transform="translate(46.0506,-8.8)"><title>Rectangle.2647</title><desc>Secure / non-secure Application RAM 64 KB</desc><rect width="152.585" height="67.81" x="0" y="446.943" class="st1"/><text x="22.26" y="462.85" class="st8">Secure / non-secure <tspan x="46.94" class="st3" dy="1.2em">Application </tspan><tspan x="62.96" class="st3" dy="1.2em">RAM </tspan><tspan x="59.95" class="st3" dy="1.2em">64 KB</tspan></text></g><g id="shape2649-27" transform="translate(1,-241.674)"><title>Dynamic connector</title><path d="M0 507.67 L197.63 507.67" class="st11"/></g><g id="shape2650-30" transform="translate(1.00715,-498.866)"><title>Dynamic connector.2650</title><path d="M0 507.67 L270.84 507.67" class="st11"/></g><g id="shape2651-33" transform="translate(477.813,-131.624)"><title>Rectangle.2651</title><desc>Application</desc><rect width="74.551" height="46.647" x="0" y="468.106" class="st12"/><text x="7.92" y="495.03" class="st8">Application</text></g><g id="shape2652-36" transform="translate(306.339,-131.624)"><title>Rectangle.2652</title><desc>Shared memory parameters nrf_modem_shmem_cfg struct</desc><rect width="152.585" height="46.647" x="0" y="468.106" class="st13"/><text x="14.05" y="482.43" class="st14">Shared memory parameters <tspan x="8.77" class="st3" dy="2.4em">nrf_modem_shmem_cfg struct</tspan></text></g><g id="shape2653-40" transform="translate(458.924,-147.861)"><title>Dynamic connector.2653</title><path d="M6.68 507.67 L7.04 507.67 L18.89 507.67" class="st15"/></g><g id="shape2654-46" transform="translate(1.00715,-1.71339)"><title>Dynamic connector.2654</title><path d="M0 507.67 L270.63 507.67" class="st11"/></g><g id="shape2655-49" transform="translate(198.636,-486.953)"><title>Sheet.2655</title><desc>0x2003 FFFF</desc><rect width="77.055" height="19" x="0" y="495.753" class="st17"/><text x="5.52" y="508.55" class="st18">0x2003 FFFF</text></g><g id="shape2657-52" transform="translate(198.636,-8.8)"><title>Sheet.2657</title><desc>0x2000 0000</desc><rect width="74.551" height="19" x="0" y="495.753" class="st17"/><text x="5.47" y="508.55" class="st18">0x2000 0000</text></g><g id="shape2658-55" transform="translate(530.498,113.687) rotate(90)"><title>Sheet.2658</title><desc>Upper 128 KB</desc><rect width="84.021" height="19" x="0" y="495.753" class="st17"/><text x="7.46" y="508.55" class="st18">Upper 128 KB</text></g><g id="shape2659-58" transform="translate(530.498,345.302) rotate(90)"><title>Sheet.2659</title><desc>Lower 128 KB</desc><rect width="84.021" height="19" x="0" y="495.753" class="st17"/><text x="7.46" y="508.55" class="st18">Lower 128 KB</text></g><g id="shape2660-61" transform="translate(216.163,-185.715)"><title>Sheet.2660</title><desc>Control area size (fixed)</desc><rect width="85.039" height="19" x="0" y="495.753" class="st17"/><text x="4" y="502.25" class="st14">Control area size <tspan x="4" class="st3" dy="1.2em">(fixed)</tspan></text></g><g id="shape2661-65" transform="translate(216.163,-151.828)"><title>Sheet.2661</title><desc>TX area size</desc><rect width="85.039" height="19" x="0" y="495.753" class="st17"/><text x="4" y="508.25" class="st14">TX area size</text></g><g id="shape2662-68" transform="translate(216.163,-117.941)"><title>Sheet.2662</title><desc>RX area size</desc><rect width="85.039" height="19" x="0" y="495.753" class="st17"/><text x="4" y="508.25" class="st14">RX area size</text></g><g id="shape2663-71" transform="translate(216.163,-84.0536)"><title>Sheet.2663</title><desc>Trace area size</desc><rect width="85.039" height="19" x="0" y="495.753" class="st17"/><text x="4" y="508.25" class="st14">Trace area size</text></g><g id="group2668-74" transform="translate(191.549,-76.6101)"><title>Sheet.2668</title><g id="shape2664-75" transform="translate(-1.19904E-14,-135.548)"><title>Dynamic connector.2664</title><path d="M13.77 514.75 L14.13 514.75 L19.76 514.75 L19.76 650.3 L14.13 650.3" class="st19"/></g><g id="shape2665-83" transform="translate(20.5579,-94.5743)"><title>Dynamic connector.2665</title><path d="M-0.7 507.67 L-6.43 507.67" class="st20"/></g><g id="shape2666-88" transform="translate(20.5073,-60.6873)"><title>Dynamic connector.2666</title><path d="M-0.75 507.67 L-6.38 507.67" class="st20"/></g><g id="shape2667-93" transform="translate(20.5579,-26.8003)"><title>Dynamic connector.2667</title><path d="M-0.7 507.67 L-6.43 507.67" class="st20"/></g></g></g></svg>