<svg xmlns="http://www.w3.org/2000/svg" xmlns:ev="http://www.w3.org/2001/xml-events" xmlns:xlink="http://www.w3.org/1999/xlink" width="728.336" height="469.168" class="st12" color-interpolation-filters="sRGB" viewBox="0 0 546.252 351.876" xml:space="preserve"><style type="text/css">.st1{fill:#6ad1e3}.st1,.st2,.st3{stroke:none;stroke-width:1}.st2{fill:#0077c8}.st3{fill:#ffcd00}.st4{fill:#333f48;font-family:Arial;font-size:1.00001em}.st5{fill:#ff585d;stroke:none}.st5,.st6{stroke-width:1}.st6,.st7{stroke:none}.st6{fill:none}.st7{fill:#002b8c;stroke-width:.5}.st8{fill:#feffff;font-family:Arial;font-size:1.00001em}.st9{fill:#fff;font-size:1em}.st10,.st11{stroke:#333f48}.st10{marker-end:url(#mrkr13-51);stroke-linecap:butt;stroke-width:1}.st11{fill:#333f48;fill-opacity:1;stroke-opacity:1;stroke-width:.28409090909091}.st12{fill:none;fill-rule:evenodd;font-size:12px;overflow:visible;stroke-linecap:square;stroke-miterlimit:3}</style><defs id="Markers"><g id="lend13"><path d="M 3 1 L 0 0 L 3 -1 L 3 1" style="stroke:none"/></g><marker id="mrkr13-51" class="st11" markerUnits="strokeWidth" orient="auto" overflow="visible" refX="-10.56"><use transform="scale(-3.52,-3.52)" xlink:href="#lend13"/></marker></defs><g><title>Page-1</title><g id="shape2691-1" transform="translate(286.084,-1)"><title>Rectangle.209</title><rect width="259.168" height="349.876" x="0" y="2" class="st1"/></g><g id="shape2692-3" transform="translate(334.678,-13.5534)"><title>Rectangle.8</title><rect width="187.897" height="23.487" x="0" y="328.389" class="st2"/></g><g id="shape2693-5" transform="translate(334.678,-39.5725)"><title>Rectangle.9</title><rect width="187.897" height="23.487" x="0" y="328.389" class="st2"/></g><g id="shape2694-7" transform="translate(334.678,-65.5915)"><title>Rectangle.10</title><rect width="187.897" height="23.487" x="0" y="328.389" class="st2"/></g><g id="shape2695-9" transform="translate(334.678,-91.6105)"><title>Rectangle.11</title><desc>Root CA 5</desc><rect width="187.897" height="23.487" x="0" y="328.389" class="st3"/><text x="66.27" y="343.73" class="st4">Root CA 5</text></g><g id="shape2696-12" transform="translate(334.678,-117.63)"><title>Rectangle.12</title><rect width="187.897" height="23.487" x="0" y="328.389" class="st2"/></g><g id="shape2697-14" transform="translate(334.678,-143.649)"><title>Rectangle.13</title><rect width="187.897" height="23.487" x="0" y="328.389" class="st2"/></g><g id="shape2698-16" transform="translate(334.678,-169.668)"><title>Rectangle.14</title><rect width="187.897" height="23.487" x="0" y="328.389" class="st2"/></g><g id="shape2699-18" transform="translate(334.678,-195.687)"><title>Rectangle.15</title><desc>Root CA 4</desc><rect width="187.897" height="23.487" x="0" y="328.389" class="st5"/><text x="66.27" y="343.73" class="st4">Root CA 4</text></g><g id="shape2700-21" transform="translate(334.678,-221.706)"><title>Rectangle.16</title><rect width="187.897" height="23.487" x="0" y="328.389" class="st2"/></g><g id="shape2701-23" transform="translate(334.678,-247.725)"><title>Rectangle.17</title><rect width="187.897" height="23.487" x="0" y="328.389" class="st2"/></g><g id="shape2702-25" transform="translate(334.678,-273.744)"><title>Rectangle.18</title><rect width="187.897" height="23.487" x="0" y="328.389" class="st2"/></g><g id="shape2703-27" transform="translate(334.678,-299.763)"><title>Rectangle.19</title><rect width="187.897" height="23.487" x="0" y="328.389" class="st2"/></g><g id="shape2704-29" transform="translate(292.035,-323.25)"><title>Sheet.2704</title><desc>Modem</desc><rect width="253.217" height="22.857" x="0" y="329.019" class="st6"/><text x="4" y="344.05" class="st4">Modem</text></g><g id="shape2705-32" transform="translate(307.952,-91.6105)"><title>Square.213</title><desc>5</desc><rect width="23.487" height="23.487" x="0" y="328.389" class="st7"/><text x="8.41" y="343.73" class="st8">5</text></g><g id="shape2706-35" transform="translate(307.952,-195.687)"><title>Square.27</title><desc>4</desc><rect width="23.487" height="23.487" x="0" y="328.389" class="st7"/><text x="8.41" y="343.73" class="st8">4</text></g><g id="shape2709-38" transform="translate(1,-195.687)"><title>Rectangle.30</title><desc>AT%CMNG=1,4,0,&lt;Root CA 4&gt;</desc><rect width="220.292" height="23.487" x="0" y="328.389" class="st5"/><text x="4" y="343.73" class="st4">AT%CMNG=1,<tspan class="st9">4</tspan>,0,&lt;Root CA 4&gt;</text></g><g id="shape2710-42" transform="translate(1,-169.668)"><title>Rectangle.31</title><desc>AT%CMNG=1,5,0,&lt;Root CA 5&gt;</desc><rect width="220.292" height="23.487" x="0" y="328.389" class="st3"/><text x="4" y="343.73" class="st4">AT%CMNG=1,<tspan class="st9">5</tspan>,0,&lt;Root CA 5&gt;</text></g><g id="shape2712-46" transform="translate(221.292,-200.344)"><title>Dynamic connector.42</title><path d="M0 344.79 L76.1 344.79" class="st10"/></g><g id="shape2713-52" transform="translate(221.292,-181.411)"><title>Dynamic connector.43</title><path d="M0 351.88 L19.01 351.88 L19.01 429.93 L76.1 429.93" class="st10"/></g><g id="shape2714-57" transform="translate(1,-224.868)"><title>Sheet.2714</title><desc>Key provisioning</desc><rect width="134.839" height="22.857" x="0" y="329.019" class="st6"/><text x="4" y="344.05" class="st4">Key provisioning</text></g></g></svg>